<svg width="33" height="33" viewBox="0 0 33 33" fill="none" xmlns="http://www.w3.org/2000/svg">
<path d="M0.459534 0.285713V32.2857H32.4595V0.285713H0.459534ZM17.8738 25.2429C17.8738 28.3571 16.0452 29.7786 13.381 29.7786C10.9738 29.7786 9.58096 28.5357 8.86668 27.0286L11.3167 25.55C11.7881 26.3857 12.2167 27.0929 13.2524 27.0929C14.2381 27.0929 14.8667 26.7071 14.8667 25.2V14.9786H17.8738V25.2429ZM24.9881 29.7786C22.1952 29.7786 20.3881 28.45 19.5095 26.7071L21.9595 25.2929C22.6024 26.3429 23.4452 27.1214 24.9238 27.1214C26.1667 27.1214 26.9667 26.5 26.9667 25.6357C26.9667 24.6071 26.1524 24.2429 24.7738 23.6357L24.0238 23.3143C21.8524 22.3929 20.4167 21.2286 20.4167 18.7786C20.4167 16.5214 22.1381 14.8071 24.8167 14.8071C26.731 14.8071 28.1024 15.4714 29.0881 17.2143L26.7452 18.7143C26.231 17.7929 25.6738 17.4286 24.8095 17.4286C23.931 17.4286 23.3738 17.9857 23.3738 18.7143C23.3738 19.6143 23.931 19.9786 25.2238 20.5429L25.9738 20.8643C28.531 21.9571 29.9667 23.0786 29.9667 25.5929C29.9667 28.2929 27.8381 29.7786 24.9881 29.7786Z" fill="#E7E3ED"/>
</svg>
