<svg width="24" height="32" viewBox="0 0 24 32" fill="none" xmlns="http://www.w3.org/2000/svg">
<path d="M1.188 20.896L4.339 0.615008C4.443 -0.0729925 5.37 -0.228992 5.693 0.386008L9.084 6.74501L1.188 20.896ZM23.578 25.818L20.578 7.15101C20.5553 7.02057 20.4972 6.89885 20.4102 6.79905C20.3232 6.69926 20.2105 6.6252 20.0844 6.58491C19.9583 6.54461 19.8235 6.53963 19.6947 6.5705C19.566 6.60137 19.4481 6.66691 19.354 6.76001L0.421997 25.817L10.896 31.723C11.552 32.093 12.354 32.093 13.011 31.723L23.578 25.818ZM15.068 9.53101L12.641 4.88501C12.5795 4.76838 12.4874 4.67075 12.3745 4.60265C12.2617 4.53454 12.1323 4.49855 12.0005 4.49855C11.8687 4.49855 11.7393 4.53454 11.6265 4.60265C11.5136 4.67075 11.4215 4.76838 11.36 4.88501L0.708997 23.979L15.068 9.53101Z" fill="#E7E3ED"/>
</svg>
