<svg width="24" height="29" viewBox="0 0 24 29" fill="none" xmlns="http://www.w3.org/2000/svg">
<path d="M22.86 6.12938L13.1457 0.303125C12.7967 0.104198 12.402 -0.000415802 12.0003 -0.000415802C11.5987 -0.000415802 11.204 0.104198 10.855 0.303125L1.14003 6.12875C0.789931 6.34329 0.501079 6.6445 0.301381 7.00328C0.101684 7.36206 -0.00210838 7.76627 3.24591e-05 8.17688V19.8125C-0.00206795 20.2234 0.101725 20.6278 0.301404 20.9869C0.501082 21.346 0.789909 21.6475 1.14003 21.8625L3.68753 23.3838L3.70191 23.3919C4.98816 24.05 5.48066 24.05 6.05128 24.05C8.06003 24.05 9.30816 22.75 9.30816 20.6569V9.375C9.30932 9.23415 9.25457 9.09859 9.15592 8.99806C9.05726 8.89753 8.92275 8.84023 8.78191 8.83875H7.38316C7.24231 8.84023 7.10781 8.89753 7.00915 8.99806C6.91049 9.09859 6.85574 9.23415 6.85691 9.375V20.6569C6.862 20.8184 6.82525 20.9785 6.75024 21.1216C6.67523 21.2647 6.56449 21.386 6.42878 21.4737C6.06003 21.6987 5.52441 21.6512 4.92003 21.3394L2.47878 19.87C2.46944 19.8636 2.46181 19.855 2.45658 19.845C2.45134 19.835 2.44867 19.8238 2.44878 19.8125V8.34125C2.44918 8.32806 2.45274 8.31516 2.45916 8.30364C2.46557 8.29211 2.47466 8.28229 2.48566 8.275L11.9757 2.4625C11.9827 2.45898 11.9906 2.45714 11.9985 2.45714C12.0064 2.45714 12.0142 2.45898 12.0213 2.4625L21.5169 8.275C21.5277 8.28288 21.5365 8.29324 21.5424 8.3052C21.5484 8.31716 21.5515 8.33038 21.5513 8.34375V19.8125C21.5515 19.8244 21.5491 19.8361 21.5443 19.8469C21.5394 19.8577 21.5322 19.8673 21.5232 19.875L12.0194 25.5406C12.0032 25.5462 11.9856 25.5462 11.9694 25.5406L9.54253 24.0994C9.47048 24.0523 9.38725 24.0251 9.3013 24.0206C9.21534 24.0161 9.12973 24.0344 9.05316 24.0737L9.03191 24.0863C8.36191 24.4831 8.18191 24.5863 7.56066 24.8125C7.45941 24.8494 7.22128 24.9375 7.20066 25.1731C7.18003 25.4087 7.40628 25.5762 7.60753 25.6931L10.8513 27.685C11.1969 27.892 11.5922 28.0015 11.995 28.0019H12.0313C12.4241 27.9957 12.8084 27.8864 13.1457 27.685L22.86 21.8644C23.21 21.6487 23.4986 21.3468 23.6982 20.9874C23.8979 20.6281 24.0018 20.2235 24 19.8125V8.17688C24.002 7.76639 23.8981 7.36232 23.6985 7.00368C23.4988 6.64503 23.21 6.34391 22.86 6.12938V6.12938Z" fill="#E7E3ED"/>
</svg>
