<svg width="29" height="32" viewBox="0 0 29 32" fill="none" xmlns="http://www.w3.org/2000/svg">
<path d="M15.151 11.7321L11.1754 0H28.0658L24.0764 11.7662C23.9047 11.8072 23.736 11.8595 23.5712 11.9228L19.6303 3.88331L15.6779 11.8752C15.5057 11.8156 15.3297 11.7678 15.151 11.7321ZM2.16182 30.9371C7.47438 34.6686 13.3671 27.4481 21.3937 26.5384C26.0031 26.2653 29.1361 23.4436 27.3509 19.0754C24.0319 21.1197 20.9299 18.4408 20.9516 15.7527H18.4296C18.3468 18.1526 16.5416 20.0408 13.7434 19.7601C11.5531 23.0366 9.01463 24.8776 6.13426 25.8133C4.18745 24.9149 2.35538 22.7264 3.18601 19.8034C2.82456 19.7631 2.47022 19.6741 2.13257 19.539C-0.545053 24.5389 -0.875928 28.4904 2.16182 30.9371V30.9371ZM6.11688 15.7531C6.11688 13.854 4.04695 12.6607 2.40001 13.6102C0.753072 14.5597 0.752947 16.9464 2.40001 17.8959C4.04695 18.8454 6.11688 17.6521 6.11688 15.7531ZM16.8299 15.7295C16.8299 13.8305 14.7599 12.6371 13.1129 13.5867C11.466 14.5362 11.4659 16.9229 13.1129 17.8723C14.7599 18.8219 16.8298 17.6286 16.8298 15.7295H16.8299ZM27.5026 15.7295C27.5026 13.8305 25.4326 12.6371 23.7857 13.5867C22.1388 14.5362 22.1387 16.9229 23.7857 17.8723C25.4327 18.8219 27.5026 17.6286 27.5026 15.7295H27.5026Z" fill="#E7E3ED"/>
</svg>
