<svg width="28" height="29" viewBox="0 0 28 29" fill="none" xmlns="http://www.w3.org/2000/svg">
<path d="M27.4875 11.1028C27.0063 9.17151 26.0938 7.71526 24.15 7.71526H21.6438V10.6778C21.6438 12.9778 19.6938 14.9153 17.4688 14.9153H10.7938C8.9688 14.9153 7.4563 16.4778 7.4563 18.309V24.6715C7.4563 26.484 9.0313 27.5465 10.7938 28.0653C12.9063 28.684 14.9375 28.7965 17.4688 28.0653C19.15 27.5778 20.8063 26.5965 20.8063 24.6715V22.1278H14.1375V21.2778H24.15C26.0938 21.2778 26.8125 19.9215 27.4875 17.8903C28.1875 15.7965 28.1563 13.784 27.4875 11.1028ZM17.8875 23.8215C18.5813 23.8215 19.1438 24.3903 19.1438 25.0903C19.1438 25.7965 18.5813 26.3653 17.8875 26.3653C17.2 26.3653 16.6313 25.7903 16.6313 25.0903C16.6375 24.384 17.2 23.8215 17.8875 23.8215ZM10.4875 14.0778H17.1625C19.0188 14.0778 20.5 12.5465 20.5 10.684V4.31526C20.5 2.50276 18.975 1.14651 17.1625 0.840257C14.925 0.471507 12.4938 0.490257 10.4875 0.846507C7.66255 1.34651 7.15005 2.39026 7.15005 4.32151V6.86526H13.8313V7.71526H4.6438C2.70005 7.71526 1.00005 8.88401 0.468797 11.1028C-0.143703 13.6465 -0.168703 15.234 0.468797 17.8903C0.943797 19.8653 2.07505 21.2778 4.0188 21.2778H6.31255V18.2278C6.31255 16.0215 8.2188 14.0778 10.4875 14.0778ZM10.0688 5.16526C9.37505 5.16526 8.81255 4.59651 8.81255 3.89651C8.8188 3.19026 9.37505 2.62151 10.0688 2.62151C10.7563 2.62151 11.325 3.19651 11.325 3.89651C11.325 4.59651 10.7625 5.16526 10.0688 5.16526Z" fill="#E7E3ED"/>
</svg>
