<svg width="32" height="24" viewBox="0 0 32 24" fill="none" xmlns="http://www.w3.org/2000/svg">
<path d="M26.2987 23.0307L26.3293 22.9707C26.3574 22.9208 26.381 22.8686 26.4 22.8147L26.4027 22.808C26.4984 22.5495 26.5232 22.27 26.4747 21.9987V22.008C26.4234 21.7141 26.3175 21.4324 26.1627 21.1773L26.1693 21.188L19.0787 8.716L17.996 6.82267L16.92 8.716L9.83335 21.188C9.69676 21.4387 9.60473 21.7112 9.56135 21.9933V22.0067C9.50352 22.3276 9.54059 22.6585 9.66801 22.9587L9.66268 22.948C9.68169 22.9948 9.70397 23.0403 9.72935 23.084L9.72668 23.0787C9.94001 23.4453 10.3933 23.8813 11.3933 23.8813H24.5933C24.8027 23.8813 25.8267 23.8387 26.3 23.032L26.2987 23.0307ZM17.9947 10.608L24.4747 22.0067H11.516L17.9947 10.608ZM31.6614 21.188L22.3067 4.70533C22.2107 4.532 21.6707 3.656 20.7307 3.656C20.308 3.656 19.7013 3.836 19.208 4.70267L17.9987 6.82267L19.0747 8.716L20.7413 5.76667L29.9973 22.0093H26.4773C26.5227 22.2817 26.4961 22.5611 26.4 22.82L26.404 22.8093C26.3838 22.8675 26.3583 22.9237 26.328 22.9773L26.3307 22.972L26.3 23.032C25.8267 23.8387 24.804 23.8813 24.604 23.8813H30.1107C30.312 23.8813 31.332 23.8387 31.8053 23.032C32.0147 22.6653 32.1654 22.0493 31.6627 21.1893L31.6614 21.188ZM9.73601 23.0773C9.71391 23.0375 9.69388 22.9966 9.67601 22.9547L9.67335 22.9467C9.54241 22.6484 9.50342 22.3179 9.56135 21.9973V22.0067H1.99601L13.236 2.228L16.9267 8.71467L17.996 6.82133L14.78 1.15467C14.6907 0.992001 14.1467 0.118668 13.2093 0.118668C12.788 0.118668 12.1813 0.301334 11.6867 1.168L0.302678 21.1867C0.206678 21.36 -0.263988 22.2693 0.202678 23.076C0.416012 23.4427 0.869345 23.8787 1.86935 23.8787H11.4053C10.412 23.8787 9.95201 23.4493 9.73868 23.076L9.73601 23.0773Z" fill="#E7E3ED"/>
</svg>
