<svg width="32" height="32" viewBox="0 0 32 32" fill="none" xmlns="http://www.w3.org/2000/svg">
<path fill-rule="evenodd" clip-rule="evenodd" d="M7.28251 5.38679C6.98174 5.38152 6.68154 5.41468 6.38917 5.48546V5.53612H6.43851C6.61184 5.89212 6.91851 6.12279 7.13317 6.42946L7.62917 7.47079L7.67984 7.42146C7.98651 7.20546 8.12784 6.85879 8.12651 6.32946C8.00251 6.20012 7.98384 6.03746 7.87717 5.88279C7.73584 5.67746 7.46117 5.56012 7.28251 5.38679ZM31.3052 30.8495C31.5385 31.0215 31.6958 31.2881 31.9998 31.3961V31.3455C31.8398 31.1428 31.7998 30.8628 31.6532 30.6508C31.4385 30.4375 31.2212 30.2215 31.0078 30.0055C30.3758 29.1681 29.5758 28.4321 28.7238 27.8215C28.0465 27.3348 26.5252 26.6761 26.2425 25.8868L26.1918 25.8361C26.6732 25.7828 27.2372 25.6081 27.6812 25.4895C28.4278 25.2895 29.0945 25.3401 29.8652 25.1428C30.2132 25.0415 30.5598 24.9428 30.9078 24.8441V24.6441C30.5185 24.2441 30.2412 23.7161 29.8158 23.3548C28.7038 22.4081 27.4918 21.4615 26.2425 20.6748C25.5492 20.2361 24.6932 19.9535 23.9585 19.5815C23.7118 19.4575 23.2785 19.3921 23.1158 19.1855C22.7292 18.6921 22.5198 18.0695 22.2225 17.4975C21.5998 16.2975 20.9865 14.9868 20.4358 13.7241C20.0585 12.8641 19.8132 12.0161 19.3425 11.2441C17.0892 7.53746 14.6625 5.30146 10.9052 3.10279C10.1052 2.63612 9.14251 2.45079 8.12651 2.20946L6.48784 2.11079C6.15451 1.97079 5.80784 1.56412 5.49584 1.36546C4.25051 0.578791 1.05584 -1.13188 0.13584 1.11746C-0.446826 2.53746 1.00517 3.92279 1.52517 4.64146C1.88917 5.14679 2.35584 5.71212 2.61717 6.28012C2.78784 6.65346 2.81717 7.02679 2.96384 7.42146C3.32517 8.39479 3.63851 9.45079 4.10517 10.3495C4.34251 10.8041 4.60251 11.2828 4.89984 11.6895C5.08384 11.9388 5.39584 12.0495 5.44517 12.4348C5.13851 12.8628 5.12251 13.5281 4.95051 14.0721C4.17451 16.5188 4.46651 19.5588 5.59584 21.3695C5.94117 21.9241 6.75584 23.1161 7.87717 22.6588C8.85851 22.2588 8.63984 21.0215 8.91984 19.9295C8.98251 19.6815 8.94517 19.4988 9.06917 19.3335V19.3828L9.96251 21.1695C10.6238 22.2348 11.7972 23.3481 12.7918 24.0988C13.3065 24.4881 13.7118 25.1615 14.3798 25.3895V25.3388H14.3305C14.1998 25.1388 13.9972 25.0548 13.8345 24.8921C13.4216 24.4913 13.0396 24.0599 12.6918 23.6015C11.7878 22.3748 10.9892 21.0308 10.2612 19.6321C9.91317 18.9628 9.61051 18.2268 9.31717 17.5468C9.20384 17.2841 9.20517 16.8881 8.97051 16.7521C8.64917 17.2508 8.17584 17.6535 7.92784 18.2415C7.53051 19.1815 7.47851 20.3281 7.33184 21.5175C7.24517 21.5481 7.28384 21.5268 7.23184 21.5668C6.54117 21.4001 6.29851 20.6881 6.04117 20.0775C5.39184 18.5348 5.27051 16.0481 5.84251 14.2708C5.99051 13.8108 6.65984 12.3628 6.38917 11.9375C6.25851 11.5135 5.83317 11.2695 5.59451 10.9455C5.28244 10.5105 5.01614 10.0445 4.79984 9.55479C4.26917 8.35212 4.01984 7.00012 3.45984 5.78279C3.19317 5.20146 2.73984 4.61346 2.36784 4.09612C1.95717 3.52279 1.49584 3.10146 1.17717 2.40812C1.06384 2.16146 0.909174 1.76812 1.07717 1.51479C1.13051 1.34412 1.20651 1.27212 1.37584 1.21746C1.66384 0.994791 2.46517 1.29079 2.76517 1.41479C3.56117 1.74546 4.22517 2.06012 4.89851 2.50812C5.22251 2.72146 5.55051 3.13746 5.94117 3.25212H6.38784C7.08784 3.41212 7.87051 3.30146 8.52251 3.50012C9.67584 3.85079 10.7092 4.39612 11.6492 4.98946C14.5105 6.79612 16.8492 9.36679 18.4492 12.4348C18.7065 12.9281 18.8185 13.4001 19.0452 13.9241C19.5025 14.9801 20.0785 16.0668 20.5332 17.1001C20.9865 18.1308 21.4305 19.1708 22.0718 20.0281C22.4092 20.4788 23.7132 20.7215 24.3065 20.9721C24.7212 21.1468 25.4012 21.3308 25.7945 21.5668C26.5465 22.0201 27.2745 22.5601 27.9785 23.0561C28.3305 23.3055 29.4145 23.8495 29.4678 24.2961C27.7212 24.2508 26.3878 24.4121 25.2492 24.8935C24.9252 25.0295 24.4092 25.0335 24.3558 25.4388C24.5332 25.6255 24.5612 25.9055 24.7025 26.1335C24.9745 26.5735 25.4345 27.1641 25.8438 27.4735C26.2932 27.8121 26.7545 28.1735 27.2345 28.4668C28.0878 28.9868 29.0425 29.2855 29.8638 29.8068C30.3505 30.1148 30.8318 30.5015 31.3038 30.8495H31.3052Z" fill="#E7E3ED"/>
</svg>
