<svg width="20" height="32" viewBox="0 0 20 32" fill="none" xmlns="http://www.w3.org/2000/svg">
<path d="M9.99999 1.06666L10.7872 0.345598C10.6873 0.236296 10.5656 0.149004 10.4301 0.0892827C10.2946 0.0295612 10.1481 -0.00128174 9.99999 -0.00128174C9.85189 -0.00128174 9.7054 0.0295612 9.56987 0.0892827C9.43434 0.149004 9.31273 0.236296 9.21279 0.345598L9.99999 1.06666ZM9.99999 28.8L9.16159 29.4592C9.26141 29.5861 9.38873 29.6887 9.53396 29.7592C9.67919 29.8298 9.83854 29.8664 9.99999 29.8664C10.1614 29.8664 10.3208 29.8298 10.466 29.7592C10.6113 29.6887 10.7386 29.5861 10.8384 29.4592L9.99999 28.8ZM3.86239 20.9877L3.02399 21.6491L3.86239 20.9877ZM4.38719 7.19146L3.59999 6.46826L4.38719 7.1872V7.19146ZM15.6128 7.19146L16.4 6.4704L15.6128 7.18933V7.19146ZM16.1376 20.9877L16.976 21.6491L16.1376 20.9877ZM11.0667 32V1.06666H8.93333V32H11.0667ZM10.8384 28.1408L4.70079 20.3307L3.02399 21.6491L9.16159 29.4613L10.8384 28.1429V28.1408ZM5.17226 7.9104L10.7893 1.78773L9.21066 0.345598L3.59999 6.46826L5.17013 7.9104H5.17226ZM9.21279 1.78773L14.8277 7.9104L16.4 6.4704L10.7872 0.347731L9.21066 1.7856L9.21279 1.78773ZM15.2992 20.3285L9.16159 28.1408L10.8384 29.4592L16.976 21.6469L15.2992 20.3285V20.3285ZM14.8277 7.91253C16.3649 9.59064 17.2559 11.7603 17.3419 14.0344C17.4279 16.3085 16.7032 18.5392 15.2971 20.3285L16.976 21.6469C18.6946 19.4595 19.5802 16.7327 19.4747 13.9529C19.3692 11.1731 18.2795 8.52122 16.4 6.4704L14.8277 7.9104V7.91253ZM4.70079 20.3285C3.29497 18.5389 2.57064 16.3081 2.65699 14.034C2.74334 11.7599 3.63477 9.59038 5.17226 7.91253L3.59999 6.46826C1.7205 8.51909 0.630795 11.171 0.525293 13.9508C0.419791 16.7306 1.30536 19.4574 3.02399 21.6448L4.70079 20.3264V20.3285Z" fill="#E7E3ED"/>
</svg>
