<svg width="32" height="32" xmlns="http://www.w3.org/2000/svg">

  <defs>
    <symbol id="icon-css" viewBox="0 0 28 32">
      <path d="M0 0.571426L2.49286 28.8429L13.7143 32.5714L24.9357 28.8429L27.4286 0.571426H0ZM22.3643 6.28571L22.0214 9.66428L13.7857 13.1857L13.7643 13.1929H21.7286L20.8143 23.6643L13.8 25.7143L6.74286 23.6286L6.28571 18.35H9.77857L10.0071 21.0857L13.7643 22.0357L17.6714 20.9357L17.9357 16.5357L6.05714 16.5V16.4929L6.04286 16.5L5.78571 13.1929L13.7929 9.85714L14.2571 9.66428H5.47857L5.06429 6.28571H22.3643Z" width="28" height="33"/>
    </symbol>

    <symbol id="icon-cypress" viewBox="0 0 32 32">
      <path d="M15.9973 0C7.15467 0 3.56063e-06 7.156 3.56063e-06 16C-0.00139887 18.1015 0.411496 20.1828 1.21507 22.1246C2.01865 24.0664 3.19715 25.8308 4.68317 27.3168C6.16918 28.8029 7.93357 29.9814 9.87541 30.7849C11.8173 31.5885 13.8985 32.0014 16 32C24.844 32 32 24.844 32 16C31.9987 7.156 24.784 0 15.9973 0ZM8.49334 19.4333C9.016 20.1307 9.71467 20.4227 10.7027 20.4227C11.1693 20.4227 11.6347 20.364 12.0413 20.1893C12.4493 20.016 12.9147 19.7813 13.4947 19.4333L15.1253 21.76C13.788 22.8667 12.2747 23.3893 10.5293 23.3893C9.132 23.3893 7.96934 23.0987 6.92267 22.5173C5.90657 21.9179 5.09516 21.0256 4.59467 19.9573C4.072 18.8507 3.78 17.5707 3.78 16.0573C3.78 14.604 4.072 13.2653 4.59334 12.16C5.09111 11.0588 5.90159 10.1282 6.924 9.484C7.912 8.844 9.13334 8.55333 10.472 8.55333C11.404 8.55333 12.276 8.66933 12.9747 8.96C13.7585 9.26341 14.4859 9.69607 15.1267 10.24L13.4973 12.4507C13.0837 12.1453 12.6347 11.891 12.16 11.6933C11.7533 11.52 11.2293 11.4613 10.7627 11.4613C8.78534 11.4613 7.796 12.9733 7.796 16.056C7.73867 17.6293 8.02934 18.7333 8.49467 19.432H8.49334V19.4333ZM24.4933 23.04C23.912 24.844 23.0387 26.1827 21.816 27.1707C20.5947 28.1613 18.9653 28.684 16.9293 28.8587L16.5227 26.1253C17.86 25.9493 18.8493 25.6587 19.4893 25.192C19.7213 25.0187 20.188 24.4947 20.188 24.4947L15.3587 9.01867H19.372L22.1653 20.596L25.1333 9.01867H29.0307L24.4933 23.04Z" width="32" height="32"/>
    </symbol>

    <symbol id="icon-docker" viewBox="0 0 32 24">
      <path d="M6.42699 19.031C5.51599 19.031 4.68799 18.287 4.68799 17.38C4.68799 16.473 5.43199 15.724 6.42699 15.724C7.42699 15.724 8.17799 16.469 8.17799 17.38C8.17799 18.287 7.34499 19.031 6.43299 19.031H6.42699ZM27.776 10.016C27.593 8.693 26.776 7.615 25.697 6.792L25.276 6.45899L24.937 6.87C24.281 7.615 24.016 8.93799 24.098 9.927C24.177 10.678 24.415 11.422 24.838 12C24.494 12.177 24.078 12.333 23.754 12.505C22.994 12.754 22.254 12.838 21.515 12.838H0.129994L0.0459939 13.327C-0.115759 14.9401 0.142973 16.5676 0.796994 18.051L1.12499 18.63V18.707C3.12499 22.02 6.68199 23.51 10.562 23.51C18.021 23.51 24.135 20.286 27.035 13.333C28.936 13.416 30.854 12.921 31.754 11.098L31.994 10.687L31.598 10.436C30.515 9.77499 29.035 9.687 27.797 10.02L27.77 10.025L27.776 10.016ZM17.099 8.693H13.86V11.921H17.099V8.693ZM17.099 4.63599H13.86V7.864H17.099V4.63599ZM17.099 0.494995H13.86V3.724H17.099V0.494995ZM21.057 8.693H17.838V11.921H21.067V8.693H21.057ZM9.06299 8.693H5.84399V11.921H9.07299V8.693H9.06299ZM13.099 8.693H9.90199V11.921H13.121V8.693H13.099ZM5.06299 8.693H1.86399V11.921H5.10399V8.693H5.06299ZM13.099 4.63599H9.90199V7.864H13.121V4.64L13.099 4.63599ZM9.04099 4.63599H5.84899V7.864H9.06799V4.64L9.04699 4.63599H9.04099Z" width="32" height="24"/>
    </symbol>

    <symbol id="icon-figma" viewBox="0 0 24 32">
      <path d="M17.136 11.9747H11.0186V0H17.136C20.4373 0 23.1226 2.68533 23.1226 5.98667C23.1226 9.288 20.4373 11.9747 17.136 11.9747V11.9747ZM12.98 10.0133H17.136C19.356 10.0133 21.1613 8.20667 21.1613 5.988C21.1613 3.76933 19.3546 1.96267 17.136 1.96267H12.98V10.0133V10.0133ZM12.98 11.9747H6.86398C3.56264 11.9747 0.87731 9.28933 0.87731 5.988C0.87731 2.68667 3.56264 0 6.86398 0H12.9813V11.9747H12.98ZM6.86398 1.96133C4.64398 1.96133 2.83864 3.768 2.83864 5.98667C2.83864 8.20533 4.64398 10.0133 6.86398 10.0133H11.02V1.96133H6.86398ZM12.98 21.9867H6.86398C3.56264 21.9867 0.87731 19.3013 0.87731 16C0.87731 12.6987 3.56264 10.0133 6.86398 10.0133H12.9813V21.9867H12.98ZM6.86398 11.9747C4.64398 11.9747 2.83864 13.7813 2.83864 16C2.83864 18.2187 4.64531 20.0253 6.86398 20.0253H11.02V11.9747H6.86398ZM6.89598 32C3.57731 32 0.875977 29.3147 0.875977 26.0133C0.875977 22.712 3.56131 20.0267 6.86264 20.0267H12.98V25.948C12.98 29.2853 10.2506 32 6.89598 32V32ZM6.86398 21.9867C5.79682 21.9881 4.77379 22.4126 4.01919 23.1672C3.2646 23.9218 2.84005 24.9448 2.83864 26.012C2.83864 28.232 4.65864 30.0373 6.89731 30.0373C9.17064 30.0373 11.0213 28.2027 11.0213 25.9467V21.9867H6.86398V21.9867ZM17.136 21.9867H17.0053C13.704 21.9867 11.0186 19.3013 11.0186 16C11.0186 12.6987 13.704 10.0133 17.0053 10.0133H17.136C20.4373 10.0133 23.1226 12.6987 23.1226 16C23.1226 19.3013 20.4373 21.9867 17.136 21.9867V21.9867ZM17.0066 11.9747C14.7866 11.9747 12.9813 13.7813 12.9813 16C12.9813 18.2187 14.788 20.0253 17.0066 20.0253H17.1373C19.3573 20.0253 21.1626 18.2187 21.1626 16C21.1626 13.7813 19.356 11.9747 17.1373 11.9747H17.0066V11.9747Z" width="24" height="32"/>
    </symbol>

    <symbol id="icon-firebase" viewBox="0 0 24 32">
      <path d="M1.188 20.896L4.339 0.615008C4.443 -0.0729925 5.37 -0.228992 5.693 0.386008L9.084 6.74501L1.188 20.896ZM23.578 25.818L20.578 7.15101C20.5553 7.02057 20.4972 6.89885 20.4102 6.79905C20.3232 6.69926 20.2105 6.6252 20.0844 6.58491C19.9583 6.54461 19.8235 6.53963 19.6947 6.5705C19.566 6.60137 19.4481 6.66691 19.354 6.76001L0.421997 25.817L10.896 31.723C11.552 32.093 12.354 32.093 13.011 31.723L23.578 25.818ZM15.068 9.53101L12.641 4.88501C12.5795 4.76838 12.4874 4.67075 12.3745 4.60265C12.2617 4.53454 12.1323 4.49855 12.0005 4.49855C11.8687 4.49855 11.7393 4.53454 11.6265 4.60265C11.5136 4.67075 11.4215 4.76838 11.36 4.88501L0.708997 23.979L15.068 9.53101Z" width="24" height="32"/>
    </symbol>

    <symbol id="icon-git" viewBox="0 0 32 32">
      <path d="M31.396 14.573L17.422 0.604002C17.2306 0.412155 17.0033 0.259946 16.753 0.156091C16.5027 0.0522374 16.2344 -0.0012207 15.9635 -0.0012207C15.6925 -0.0012207 15.4242 0.0522374 15.1739 0.156091C14.9236 0.259946 14.6963 0.412155 14.505 0.604002L11.609 3.505L15.291 7.182C15.7235 7.03528 16.1885 7.01269 16.6332 7.1168C17.0779 7.2209 17.4845 7.44754 17.807 7.771C18.495 8.459 18.687 9.448 18.396 10.302L21.938 13.849C22.3719 13.6979 22.8397 13.6724 23.2875 13.7756C23.7353 13.8787 24.1448 14.1063 24.469 14.432C25.433 15.39 25.433 16.942 24.469 17.901C24.2417 18.1287 23.9717 18.3094 23.6745 18.4327C23.3773 18.556 23.0587 18.6194 22.737 18.6194C22.4152 18.6194 22.0966 18.556 21.7994 18.4327C21.5022 18.3094 21.2323 18.1287 21.005 17.901C20.6636 17.5595 20.4303 17.1251 20.3339 16.652C20.2375 16.1789 20.2824 15.6878 20.463 15.24L17.145 11.938V20.641C17.379 20.756 17.603 20.912 17.796 21.105C18.749 22.069 18.749 23.615 17.796 24.574C17.334 25.0341 16.7085 25.2925 16.0565 25.2925C15.4044 25.2925 14.779 25.0341 14.317 24.574C14.0311 24.288 13.8203 23.9358 13.7035 23.5487C13.5866 23.1616 13.5673 22.7516 13.6471 22.3552C13.727 21.9588 13.9036 21.5883 14.1613 21.2767C14.4189 20.9651 14.7496 20.7219 15.124 20.569V11.783C14.8254 11.6562 14.5533 11.4744 14.322 11.247C13.9779 10.9038 13.744 10.4657 13.6503 9.98881C13.5566 9.51191 13.6073 9.0179 13.796 8.57L10.181 4.935L0.597966 14.513C0.214871 14.9018 0.00012207 15.4257 0.00012207 15.9715C0.00012207 16.5173 0.214871 17.0412 0.597966 17.43L14.572 31.399C14.7633 31.5908 14.9906 31.7431 15.2409 31.8469C15.4912 31.9508 15.7595 32.0042 16.0305 32.0042C16.3014 32.0042 16.5697 31.9508 16.82 31.8469C17.0703 31.7431 17.2976 31.5908 17.489 31.399L31.395 17.493C31.5868 17.3016 31.739 17.0743 31.8429 16.824C31.9467 16.5738 32.0002 16.3055 32.0002 16.0345C32.0002 15.7635 31.9467 15.4952 31.8429 15.245C31.739 14.9947 31.5868 14.7674 31.395 14.576L31.396 14.573Z" width="32" height="32"/>
    </symbol>


    <symbol id="icon-github" viewBox="0 0 32 32">
      <path d="M16 0.395997C7.161 0.395997 0 7.563 0 16.396C0 23.469 4.584 29.464 10.937 31.579C11.74 31.73 12.03 31.235 12.03 30.807C12.03 30.427 12.021 29.422 12.015 28.088C7.562 29.052 6.624 25.937 6.624 25.937C5.895 24.093 4.843 23.598 4.843 23.598C3.395 22.609 4.958 22.63 4.958 22.63C6.562 22.739 7.406 24.275 7.406 24.275C8.833 26.723 11.15 26.015 12.067 25.603C12.207 24.572 12.624 23.863 13.078 23.468C9.526 23.067 5.791 21.692 5.791 15.561C5.791 13.81 6.411 12.384 7.436 11.264C7.259 10.863 6.717 9.233 7.577 7.029C7.577 7.029 8.916 6.602 11.977 8.67C13.2809 8.31536 14.6257 8.13347 15.977 8.129C17.337 8.138 18.696 8.316 19.977 8.67C23.02 6.602 24.358 7.029 24.358 7.029C25.217 9.233 24.675 10.862 24.519 11.264C25.534 12.384 26.154 13.811 26.154 15.561C26.154 21.706 22.414 23.061 18.858 23.452C19.414 23.931 19.935 24.916 19.935 26.411C19.935 28.551 19.915 30.275 19.915 30.796C19.915 31.212 20.195 31.712 21.019 31.551C27.419 29.458 31.998 23.458 31.998 16.395C31.998 7.562 24.837 0.394997 15.998 0.394997L16 0.395997Z" width="32" height="32"/>
    </symbol>


    <symbol id="icon-graphql" viewBox="0 0 30 32">
      <path d="M17.7341 3.66699L24.3121 7.46899C24.6182 7.1473 24.9949 6.90123 25.4125 6.75023C25.8301 6.59923 26.2771 6.54743 26.7182 6.59894C27.1592 6.65045 27.5823 6.80384 27.9538 7.04701C28.3254 7.29017 28.6353 7.61643 28.8591 7.99999C29.0802 8.38499 29.2086 8.8162 29.2341 9.25945C29.2597 9.7027 29.1816 10.1458 29.0062 10.5537C28.8307 10.9615 28.5627 11.3229 28.2234 11.6092C27.884 11.8954 27.4826 12.0988 27.0511 12.203V19.802C27.4834 19.904 27.8858 20.106 28.2259 20.3917C28.5661 20.6773 28.8345 21.0388 29.0098 21.447C29.185 21.8552 29.2621 22.2987 29.2349 22.7421C29.2076 23.1855 29.0769 23.6163 28.8531 24C28.6267 24.3907 28.3111 24.7222 27.932 24.9675C27.5529 25.2127 27.1211 25.3647 26.6719 25.4109C26.2228 25.4572 25.7691 25.3964 25.3479 25.2335C24.9268 25.0707 24.5502 24.8104 24.2491 24.474L17.7071 28.25C17.8488 28.6787 17.8868 29.135 17.818 29.5813C17.7491 30.0276 17.5753 30.4512 17.3108 30.8173C17.0464 31.1833 16.6989 31.4814 16.2968 31.687C15.8947 31.8926 15.4496 31.9999 14.9981 32C14.5542 32.0003 14.1164 31.897 13.7195 31.6982C13.3227 31.4994 12.9777 31.2107 12.7122 30.855C12.4467 30.4993 12.2679 30.0866 12.1901 29.6496C12.1123 29.2126 12.1376 28.7635 12.2641 28.338L5.68106 24.541C5.42255 24.8127 5.11295 25.0307 4.77 25.1826C4.42706 25.3344 4.05752 25.4171 3.68257 25.4258C3.30762 25.4345 2.93463 25.3692 2.58499 25.2335C2.23535 25.0978 1.91594 24.8944 1.64506 24.635C1.27604 24.2802 1.00906 23.8328 0.871984 23.3396C0.734911 22.8464 0.73278 22.3254 0.865812 21.8311C0.998845 21.3368 1.26216 20.8872 1.62826 20.5294C1.99436 20.1716 2.44981 19.9187 2.94706 19.797V12.198C2.54848 12.1031 2.17502 11.9235 1.85211 11.6713C1.52919 11.4191 1.2644 11.1003 1.07576 10.7366C0.887124 10.3729 0.779063 9.97283 0.758937 9.56361C0.73881 9.15439 0.80709 8.74564 0.959129 8.36518C1.11117 7.98472 1.3434 7.64148 1.64001 7.35883C1.93662 7.07619 2.29064 6.86076 2.67799 6.72723C3.06533 6.5937 3.4769 6.54519 3.88468 6.58501C4.29245 6.62483 4.68686 6.75205 5.04106 6.95799C5.27506 7.09299 5.49406 7.25999 5.68206 7.45799L12.2651 3.66099C12.0504 2.93642 12.1322 2.15624 12.4926 1.49202C12.8531 0.827799 13.4626 0.333921 14.1871 0.118991C14.6797 -0.028307 15.203 -0.0395901 15.7015 0.086337C16.2 0.212264 16.6552 0.47071 17.0188 0.834288C17.3823 1.19787 17.6408 1.65303 17.7667 2.15155C17.8926 2.65007 17.8814 3.17336 17.7341 3.66599V3.66699ZM17.0471 4.83899C17.0211 4.86499 17.0001 4.89099 16.9691 4.91699L25.5841 19.834C25.6201 19.824 25.6621 19.813 25.6931 19.803V12.194C25.3302 12.1043 24.9887 11.9438 24.688 11.7218C24.3872 11.4998 24.1333 11.2207 23.9407 10.9004C23.7481 10.58 23.6207 10.2248 23.5657 9.85514C23.5106 9.48544 23.5291 9.10852 23.6201 8.74599C23.6251 8.71499 23.6361 8.67799 23.6411 8.64699L17.0471 4.83899ZM13.0261 4.91699L12.9481 4.83899L6.35406 8.64099C6.56288 9.36688 6.47502 10.146 6.10976 10.8071C5.7445 11.4683 5.13172 11.9574 4.40606 12.167L4.30206 12.193V19.802L4.41706 19.833L13.0321 4.91599L13.0261 4.91699ZM15.7971 5.59399C15.2775 5.73999 14.7277 5.73999 14.2081 5.59399L5.59306 20.511C5.98406 20.886 6.26006 21.37 6.39506 21.902H23.6091C23.7391 21.371 24.0151 20.886 24.4111 20.506L15.7971 5.59399ZM17.1091 27.229L23.6611 23.443C23.6401 23.38 23.6251 23.318 23.6091 23.255H6.39006L6.35906 23.364L12.9481 27.166C13.2137 26.8901 13.5325 26.6708 13.8851 26.5213C14.2378 26.3718 14.617 26.2951 15.0001 26.296C15.8391 26.296 16.5891 26.655 17.1091 27.228V27.229Z" width="30" height="32"/>
    </symbol>

    <symbol id="icon-html" viewBox="0 0 29 32">
      <path d="M0 0.571426L2.568 29.3714L14.092 32.5714L25.646 29.3674L28.218 0.571426H0.00200009H0ZM23.444 27.5354L14.156 30.1094V30.1234L14.132 30.1154L14.108 30.1234V30.1094L4.82 27.5354L2.624 2.92743H25.64L23.444 27.5354ZM18.444 17.1394L18.036 21.7194L14.092 22.7834L10.158 21.7234L9.906 18.9034H6.36L6.854 24.4514L14.106 26.4574L21.336 24.4514L22.306 13.6074H9.432L9.11 9.98943H22.626L22.942 6.45743H5.248L6.202 17.1394H18.444Z" width="29" height="32"/>
    </symbol>

    <symbol id="icon-jest" viewBox="0 0 29 32">
      <path d="M15.151 11.7321L11.1754 0H28.0658L24.0764 11.7662C23.9047 11.8072 23.736 11.8595 23.5712 11.9228L19.6303 3.88331L15.6779 11.8752C15.5057 11.8156 15.3297 11.7678 15.151 11.7321ZM2.16182 30.9371C7.47438 34.6686 13.3671 27.4481 21.3937 26.5384C26.0031 26.2653 29.1361 23.4436 27.3509 19.0754C24.0319 21.1197 20.9299 18.4408 20.9516 15.7527H18.4296C18.3468 18.1526 16.5416 20.0408 13.7434 19.7601C11.5531 23.0366 9.01463 24.8776 6.13426 25.8133C4.18745 24.9149 2.35538 22.7264 3.18601 19.8034C2.82456 19.7631 2.47022 19.6741 2.13257 19.539C-0.545053 24.5389 -0.875928 28.4904 2.16182 30.9371V30.9371ZM6.11688 15.7531C6.11688 13.854 4.04695 12.6607 2.40001 13.6102C0.753072 14.5597 0.752947 16.9464 2.40001 17.8959C4.04695 18.8454 6.11688 17.6521 6.11688 15.7531ZM16.8299 15.7295C16.8299 13.8305 14.7599 12.6371 13.1129 13.5867C11.466 14.5362 11.4659 16.9229 13.1129 17.8723C14.7599 18.8219 16.8298 17.6286 16.8298 15.7295H16.8299ZM27.5026 15.7295C27.5026 13.8305 25.4326 12.6371 23.7857 13.5867C22.1388 14.5362 22.1387 16.9229 23.7857 17.8723C25.4327 18.8219 27.5026 17.6286 27.5026 15.7295H27.5026Z" width="29" height="32"/>
    </symbol>

    <symbol id="icon-javascript" viewBox="0 0 32 32">
      <path d="M0.459534 0.285713V32.2857H32.4595V0.285713H0.459534ZM17.8738 25.2429C17.8738 28.3571 16.0452 29.7786 13.381 29.7786C10.9738 29.7786 9.58096 28.5357 8.86668 27.0286L11.3167 25.55C11.7881 26.3857 12.2167 27.0929 13.2524 27.0929C14.2381 27.0929 14.8667 26.7071 14.8667 25.2V14.9786H17.8738V25.2429ZM24.9881 29.7786C22.1952 29.7786 20.3881 28.45 19.5095 26.7071L21.9595 25.2929C22.6024 26.3429 23.4452 27.1214 24.9238 27.1214C26.1667 27.1214 26.9667 26.5 26.9667 25.6357C26.9667 24.6071 26.1524 24.2429 24.7738 23.6357L24.0238 23.3143C21.8524 22.3929 20.4167 21.2286 20.4167 18.7786C20.4167 16.5214 22.1381 14.8071 24.8167 14.8071C26.731 14.8071 28.1024 15.4714 29.0881 17.2143L26.7452 18.7143C26.231 17.7929 25.6738 17.4286 24.8095 17.4286C23.931 17.4286 23.3738 17.9857 23.3738 18.7143C23.3738 19.6143 23.931 19.9786 25.2238 20.5429L25.9738 20.8643C28.531 21.9571 29.9667 23.0786 29.9667 25.5929C29.9667 28.2929 27.8381 29.7786 24.9881 29.7786Z" width="32" height="32"/>
    </symbol>

    <symbol id="icon-mongodb" viewBox="0 0 20 32">
      <path d="M9.99999 1.06666L10.7872 0.345598C10.6873 0.236296 10.5656 0.149004 10.4301 0.0892827C10.2946 0.0295612 10.1481 -0.00128174 9.99999 -0.00128174C9.85189 -0.00128174 9.7054 0.0295612 9.56987 0.0892827C9.43434 0.149004 9.31273 0.236296 9.21279 0.345598L9.99999 1.06666ZM9.99999 28.8L9.16159 29.4592C9.26141 29.5861 9.38873 29.6887 9.53396 29.7592C9.67919 29.8298 9.83854 29.8664 9.99999 29.8664C10.1614 29.8664 10.3208 29.8298 10.466 29.7592C10.6113 29.6887 10.7386 29.5861 10.8384 29.4592L9.99999 28.8ZM3.86239 20.9877L3.02399 21.6491L3.86239 20.9877ZM4.38719 7.19146L3.59999 6.46826L4.38719 7.1872V7.19146ZM15.6128 7.19146L16.4 6.4704L15.6128 7.18933V7.19146ZM16.1376 20.9877L16.976 21.6491L16.1376 20.9877ZM11.0667 32V1.06666H8.93333V32H11.0667ZM10.8384 28.1408L4.70079 20.3307L3.02399 21.6491L9.16159 29.4613L10.8384 28.1429V28.1408ZM5.17226 7.9104L10.7893 1.78773L9.21066 0.345598L3.59999 6.46826L5.17013 7.9104H5.17226ZM9.21279 1.78773L14.8277 7.9104L16.4 6.4704L10.7872 0.347731L9.21066 1.7856L9.21279 1.78773ZM15.2992 20.3285L9.16159 28.1408L10.8384 29.4592L16.976 21.6469L15.2992 20.3285V20.3285ZM14.8277 7.91253C16.3649 9.59064 17.2559 11.7603 17.3419 14.0344C17.4279 16.3085 16.7032 18.5392 15.2971 20.3285L16.976 21.6469C18.6946 19.4595 19.5802 16.7327 19.4747 13.9529C19.3692 11.1731 18.2795 8.52122 16.4 6.4704L14.8277 7.9104V7.91253ZM4.70079 20.3285C3.29497 18.5389 2.57064 16.3081 2.65699 14.034C2.74334 11.7599 3.63477 9.59038 5.17226 7.91253L3.59999 6.46826C1.7205 8.51909 0.630795 11.171 0.525293 13.9508C0.419791 16.7306 1.30536 19.4574 3.02399 21.6448L4.70079 20.3264V20.3285Z" width="20" height="32"/>
    </symbol>

    <symbol id="icon-mysql" viewBox="0 0 32 32">
      <path fill-rule="evenodd" clip-rule="evenodd" d="M7.28251 5.38679C6.98174 5.38152 6.68154 5.41468 6.38917 5.48546V5.53612H6.43851C6.61184 5.89212 6.91851 6.12279 7.13317 6.42946L7.62917 7.47079L7.67984 7.42146C7.98651 7.20546 8.12784 6.85879 8.12651 6.32946C8.00251 6.20012 7.98384 6.03746 7.87717 5.88279C7.73584 5.67746 7.46117 5.56012 7.28251 5.38679ZM31.3052 30.8495C31.5385 31.0215 31.6958 31.2881 31.9998 31.3961V31.3455C31.8398 31.1428 31.7998 30.8628 31.6532 30.6508C31.4385 30.4375 31.2212 30.2215 31.0078 30.0055C30.3758 29.1681 29.5758 28.4321 28.7238 27.8215C28.0465 27.3348 26.5252 26.6761 26.2425 25.8868L26.1918 25.8361C26.6732 25.7828 27.2372 25.6081 27.6812 25.4895C28.4278 25.2895 29.0945 25.3401 29.8652 25.1428C30.2132 25.0415 30.5598 24.9428 30.9078 24.8441V24.6441C30.5185 24.2441 30.2412 23.7161 29.8158 23.3548C28.7038 22.4081 27.4918 21.4615 26.2425 20.6748C25.5492 20.2361 24.6932 19.9535 23.9585 19.5815C23.7118 19.4575 23.2785 19.3921 23.1158 19.1855C22.7292 18.6921 22.5198 18.0695 22.2225 17.4975C21.5998 16.2975 20.9865 14.9868 20.4358 13.7241C20.0585 12.8641 19.8132 12.0161 19.3425 11.2441C17.0892 7.53746 14.6625 5.30146 10.9052 3.10279C10.1052 2.63612 9.14251 2.45079 8.12651 2.20946L6.48784 2.11079C6.15451 1.97079 5.80784 1.56412 5.49584 1.36546C4.25051 0.578791 1.05584 -1.13188 0.13584 1.11746C-0.446826 2.53746 1.00517 3.92279 1.52517 4.64146C1.88917 5.14679 2.35584 5.71212 2.61717 6.28012C2.78784 6.65346 2.81717 7.02679 2.96384 7.42146C3.32517 8.39479 3.63851 9.45079 4.10517 10.3495C4.34251 10.8041 4.60251 11.2828 4.89984 11.6895C5.08384 11.9388 5.39584 12.0495 5.44517 12.4348C5.13851 12.8628 5.12251 13.5281 4.95051 14.0721C4.17451 16.5188 4.46651 19.5588 5.59584 21.3695C5.94117 21.9241 6.75584 23.1161 7.87717 22.6588C8.85851 22.2588 8.63984 21.0215 8.91984 19.9295C8.98251 19.6815 8.94517 19.4988 9.06917 19.3335V19.3828L9.96251 21.1695C10.6238 22.2348 11.7972 23.3481 12.7918 24.0988C13.3065 24.4881 13.7118 25.1615 14.3798 25.3895V25.3388H14.3305C14.1998 25.1388 13.9972 25.0548 13.8345 24.8921C13.4216 24.4913 13.0396 24.0599 12.6918 23.6015C11.7878 22.3748 10.9892 21.0308 10.2612 19.6321C9.91317 18.9628 9.61051 18.2268 9.31717 17.5468C9.20384 17.2841 9.20517 16.8881 8.97051 16.7521C8.64917 17.2508 8.17584 17.6535 7.92784 18.2415C7.53051 19.1815 7.47851 20.3281 7.33184 21.5175C7.24517 21.5481 7.28384 21.5268 7.23184 21.5668C6.54117 21.4001 6.29851 20.6881 6.04117 20.0775C5.39184 18.5348 5.27051 16.0481 5.84251 14.2708C5.99051 13.8108 6.65984 12.3628 6.38917 11.9375C6.25851 11.5135 5.83317 11.2695 5.59451 10.9455C5.28244 10.5105 5.01614 10.0445 4.79984 9.55479C4.26917 8.35212 4.01984 7.00012 3.45984 5.78279C3.19317 5.20146 2.73984 4.61346 2.36784 4.09612C1.95717 3.52279 1.49584 3.10146 1.17717 2.40812C1.06384 2.16146 0.909174 1.76812 1.07717 1.51479C1.13051 1.34412 1.20651 1.27212 1.37584 1.21746C1.66384 0.994791 2.46517 1.29079 2.76517 1.41479C3.56117 1.74546 4.22517 2.06012 4.89851 2.50812C5.22251 2.72146 5.55051 3.13746 5.94117 3.25212H6.38784C7.08784 3.41212 7.87051 3.30146 8.52251 3.50012C9.67584 3.85079 10.7092 4.39612 11.6492 4.98946C14.5105 6.79612 16.8492 9.36679 18.4492 12.4348C18.7065 12.9281 18.8185 13.4001 19.0452 13.9241C19.5025 14.9801 20.0785 16.0668 20.5332 17.1001C20.9865 18.1308 21.4305 19.1708 22.0718 20.0281C22.4092 20.4788 23.7132 20.7215 24.3065 20.9721C24.7212 21.1468 25.4012 21.3308 25.7945 21.5668C26.5465 22.0201 27.2745 22.5601 27.9785 23.0561C28.3305 23.3055 29.4145 23.8495 29.4678 24.2961C27.7212 24.2508 26.3878 24.4121 25.2492 24.8935C24.9252 25.0295 24.4092 25.0335 24.3558 25.4388C24.5332 25.6255 24.5612 25.9055 24.7025 26.1335C24.9745 26.5735 25.4345 27.1641 25.8438 27.4735C26.2932 27.8121 26.7545 28.1735 27.2345 28.4668C28.0878 28.9868 29.0425 29.2855 29.8638 29.8068C30.3505 30.1148 30.8318 30.5015 31.3038 30.8495H31.3052Z" width="32" height="32"/>
    </symbol>

    <symbol id="icon-nextjs" viewBox="0 0 32 32">
      <path d="M24.1497 2.21919C13.566 -4.00388 0.117585 3.59681 0.000522322 15.8676C-0.113728 27.8498 12.567 35.5891 23.1268 30.3152L11.5973 13.3522V23.852C11.5973 25.0154 9.37108 25.0154 9.37108 23.852V9.77625C9.37108 8.85275 11.0866 8.77694 11.5727 9.57969L24.7141 29.4107C34.586 23.0521 34.4527 8.27719 24.1497 2.21919V2.21919ZM22.665 22.0904L20.4316 18.6793V9.34106C20.4316 8.47031 22.6649 8.47031 22.6649 9.34106V22.0904H22.665Z" width="32" height="32"/>
    </symbol>

    <symbol id="icon-nodejs" viewBox="0 0 32 32">
      
    <path d="M26.86 8.12938L17.1457 2.30313C16.7967 2.1042 16.402 1.99958 16.0003 1.99958C15.5987 1.99958 15.204 2.1042 14.855 2.30313L5.14003 8.12875C4.78993 8.34329 4.50108 8.6445 4.30138 9.00328C4.10168 9.36206 3.99789 9.76627 4.00003 10.1769V21.8125C3.99793 22.2234 4.10173 22.6278 4.3014 22.9869C4.50108 23.346 4.78991 23.6475 5.14003 23.8625L7.68753 25.3838L7.70191 25.3919C8.98816 26.05 9.48066 26.05 10.0513 26.05C12.06 26.05 13.3082 24.75 13.3082 22.6569V11.375C13.3093 11.2342 13.2546 11.0986 13.1559 10.9981C13.0573 10.8975 12.9228 10.8402 12.7819 10.8387H11.3832C11.2423 10.8402 11.1078 10.8975 11.0091 10.9981C10.9105 11.0986 10.8557 11.2342 10.8569 11.375V22.6569C10.862 22.8184 10.8253 22.9785 10.7502 23.1216C10.6752 23.2647 10.5645 23.386 10.4288 23.4737C10.06 23.6987 9.52441 23.6512 8.92003 23.3394L6.47878 21.87C6.46944 21.8636 6.46181 21.855 6.45658 21.845C6.45134 21.835 6.44867 21.8238 6.44878 21.8125V10.3413C6.44918 10.3281 6.45274 10.3152 6.45916 10.3036C6.46557 10.2921 6.47466 10.2823 6.48566 10.275L15.9757 4.4625C15.9827 4.45898 15.9906 4.45714 15.9985 4.45714C16.0064 4.45714 16.0142 4.45898 16.0213 4.4625L25.5169 10.275C25.5277 10.2829 25.5365 10.2932 25.5424 10.3052C25.5484 10.3172 25.5515 10.3304 25.5513 10.3438V21.8125C25.5515 21.8244 25.5491 21.8361 25.5443 21.8469C25.5394 21.8577 25.5322 21.8673 25.5232 21.875L20.7713 24.7078L16.0194 27.5406C16.0032 27.5462 15.9856 27.5462 15.9694 27.5406L13.5425 26.0994C13.4705 26.0523 13.3873 26.0251 13.3013 26.0206C13.2153 26.0161 13.1297 26.0344 13.0532 26.0737L13.0319 26.0863C12.3619 26.4831 12.1819 26.5863 11.5607 26.8125C11.4594 26.8494 11.2213 26.9375 11.2007 27.1731C11.18 27.4087 11.4063 27.5762 11.6075 27.6931L14.8513 29.685C15.1969 29.892 15.5922 30.0015 15.995 30.0019H16.0313C16.4241 29.9957 16.8084 29.8864 17.1457 29.685L26.86 23.8644C27.21 23.6487 27.4986 23.3468 27.6982 22.9874C27.8979 22.6281 28.0018 22.2235 28 21.8125V10.1769C28.002 9.76639 27.8981 9.36232 27.6985 9.00368C27.4988 8.64503 27.21 8.34391 26.86 8.12938Z"/>
    <path d="M19.2425 19.8781C16.9118 19.8781 16.415 19.2269 16.2675 18.1756C16.2508 18.0505 16.1898 17.9354 16.0955 17.8515C16.0013 17.7675 15.8799 17.7202 15.7537 17.7181H14.5162C14.3767 17.7211 14.2441 17.7792 14.1474 17.8797C14.0506 17.9802 13.9976 18.1149 14 18.2544C14 19.1656 14.32 22.14 19.245 22.14C20.7687 22.14 22.0362 21.7837 22.9093 21.1094C23.7825 20.435 24.25 19.4537 24.25 18.2844C24.25 15.9375 22.7187 15.295 19.7031 14.875C16.6375 14.4487 16.6375 14.2319 16.6375 13.7569C16.6375 13.415 16.6375 12.6144 18.8537 12.6144C20.4306 12.6144 21.275 12.8138 21.545 13.8644C21.5689 13.9809 21.6318 14.0857 21.7234 14.1615C21.8151 14.2373 21.9298 14.2795 22.0487 14.2812H23.2906C23.3638 14.2805 23.436 14.2642 23.5023 14.2334C23.5687 14.2026 23.6278 14.1579 23.6756 14.1025C23.7711 13.991 23.8187 13.8464 23.8081 13.7C23.6475 11.4781 22.0231 10.3512 18.8556 10.3512C15.9768 10.3512 14.2587 11.6481 14.2587 13.82C14.2587 16.2012 16.0393 16.8744 18.7143 17.1531C21.8393 17.4763 21.8393 17.9475 21.8393 18.3638C21.8412 19.0125 21.5718 19.8781 19.2425 19.8781Z" />
    
    </symbol>

    <symbol id="icon-nuxt" viewBox="0 0 32 24">
      <path d="M26.2987 23.0307L26.3293 22.9707C26.3574 22.9208 26.381 22.8686 26.4 22.8147L26.4027 22.808C26.4984 22.5495 26.5232 22.27 26.4747 21.9987V22.008C26.4234 21.7141 26.3175 21.4324 26.1627 21.1773L26.1693 21.188L19.0787 8.716L17.996 6.82267L16.92 8.716L9.83335 21.188C9.69676 21.4387 9.60473 21.7112 9.56135 21.9933V22.0067C9.50352 22.3276 9.54059 22.6585 9.66801 22.9587L9.66268 22.948C9.68169 22.9948 9.70397 23.0403 9.72935 23.084L9.72668 23.0787C9.94001 23.4453 10.3933 23.8813 11.3933 23.8813H24.5933C24.8027 23.8813 25.8267 23.8387 26.3 23.032L26.2987 23.0307ZM17.9947 10.608L24.4747 22.0067H11.516L17.9947 10.608ZM31.6614 21.188L22.3067 4.70533C22.2107 4.532 21.6707 3.656 20.7307 3.656C20.308 3.656 19.7013 3.836 19.208 4.70267L17.9987 6.82267L19.0747 8.716L20.7413 5.76667L29.9973 22.0093H26.4773C26.5227 22.2817 26.4961 22.5611 26.4 22.82L26.404 22.8093C26.3838 22.8675 26.3583 22.9237 26.328 22.9773L26.3307 22.972L26.3 23.032C25.8267 23.8387 24.804 23.8813 24.604 23.8813H30.1107C30.312 23.8813 31.332 23.8387 31.8053 23.032C32.0147 22.6653 32.1654 22.0493 31.6627 21.1893L31.6614 21.188ZM9.73601 23.0773C9.71391 23.0375 9.69388 22.9966 9.67601 22.9547L9.67335 22.9467C9.54241 22.6484 9.50342 22.3179 9.56135 21.9973V22.0067H1.99601L13.236 2.228L16.9267 8.71467L17.996 6.82133L14.78 1.15467C14.6907 0.992001 14.1467 0.118668 13.2093 0.118668C12.788 0.118668 12.1813 0.301334 11.6867 1.168L0.302678 21.1867C0.206678 21.36 -0.263988 22.2693 0.202678 23.076C0.416012 23.4427 0.869345 23.8787 1.86935 23.8787H11.4053C10.412 23.8787 9.95201 23.4493 9.73868 23.076L9.73601 23.0773Z" width="32" height="24"/>
    </symbol>

    <symbol id="icon-php" viewBox="0 0 32 17">
      <path d="M9.349 6.1814H8.088L7.401 9.7124H8.521C9.26 9.7124 9.812 9.5724 10.177 9.2914C10.536 9.0154 10.781 8.5464 10.906 7.8954C11.03 7.2704 10.973 6.8274 10.745 6.5674C10.51 6.3124 10.046 6.1814 9.349 6.1814ZM16 0.156403C7.161 0.156403 0 3.9274 0 8.5724C0 13.2174 7.161 16.9884 16 16.9884C24.839 16.9884 32 13.2174 32 8.5724C32 3.9274 24.839 0.156403 16 0.156403ZM11.651 10.0934C11.3048 10.4261 10.8882 10.6766 10.432 10.8264C9.984 10.9674 9.412 11.0454 8.719 11.0454H7.14L6.708 13.2854H4.869L6.51 4.8534H10.041C11.104 4.8534 11.88 5.1294 12.369 5.6864C12.854 6.2434 13.005 7.0254 12.806 8.0254C12.7315 8.42141 12.5948 8.80314 12.401 9.1564C12.2015 9.50631 11.9481 9.82253 11.65 10.0934H11.651ZM17.021 11.0454L17.745 7.3124C17.828 6.8894 17.797 6.5994 17.65 6.4414C17.51 6.2904 17.202 6.2124 16.734 6.2124H15.281L14.344 11.0454H12.516L14.156 2.6084H15.979L15.542 4.8534H17.167C18.194 4.8534 18.896 5.0304 19.282 5.3844C19.673 5.7444 19.787 6.3214 19.637 7.1194L18.87 11.0464L17.021 11.0454ZM27.145 8.0254C27.0728 8.42203 26.936 8.80411 26.74 9.1564C26.5424 9.50592 26.291 9.82213 25.995 10.0934C25.6457 10.4245 25.2278 10.6748 24.771 10.8264C24.323 10.9674 23.75 11.0454 23.058 11.0454H21.485L21.048 13.2854H19.209L20.85 4.8534H24.381C25.444 4.8534 26.22 5.1294 26.709 5.6924C27.194 6.2444 27.344 7.0254 27.145 8.0254ZM23.688 6.1814H22.432L21.745 9.7124H22.86C23.604 9.7124 24.156 9.5724 24.516 9.2914C24.88 9.0154 25.125 8.5464 25.251 7.8954C25.375 7.2704 25.318 6.8274 25.083 6.5674C24.855 6.3124 24.386 6.1814 23.688 6.1814Z" width="32" height="17"/>
    </symbol>

    <symbol id="icon-postgres" viewBox="0 0 32 32">
      <path d="M22.839 0C21.5945 0.00946891 20.3573 0.189821 19.162 0.536L19.079 0.563C18.3269 0.432704 17.5661 0.359495 16.803 0.344C15.23 0.317 13.88 0.697 12.792 1.333C11.719 0.964 9.49496 0.317 7.15096 0.448C5.52196 0.536 3.73996 1.031 2.41596 2.427C1.10396 3.818 0.406956 5.974 0.551956 8.912C0.592956 9.719 0.822956 11.036 1.20796 12.749C1.58796 14.458 2.12496 16.458 2.79696 18.286C3.46896 20.109 4.20196 21.749 5.34896 22.863C5.92096 23.42 6.71296 23.895 7.64496 23.854C8.29696 23.827 8.88496 23.541 9.39596 23.119C9.64496 23.447 9.91196 23.587 10.151 23.718C10.459 23.885 10.75 23.999 11.058 24.073C11.61 24.213 12.553 24.396 13.657 24.208C14.059 24.1357 14.4508 24.0151 14.824 23.849L14.871 25.156C14.928 26.536 14.966 27.812 15.376 28.932C15.444 29.115 15.627 30.052 16.345 30.885C17.069 31.718 18.474 32.234 20.084 31.89C21.215 31.65 22.657 31.213 23.616 29.849C24.564 28.505 24.991 26.573 25.075 23.437C25.095 23.265 25.122 23.125 25.147 22.989L25.371 23.01H25.398C26.606 23.062 27.919 22.89 29.018 22.379C29.986 21.931 30.721 21.478 31.257 20.671C31.388 20.472 31.538 20.228 31.576 19.811C31.617 19.4 31.377 18.748 30.981 18.447C30.19 17.843 29.69 18.072 29.153 18.187C28.627 18.3003 28.0917 18.3646 27.554 18.379C29.095 15.786 30.199 13.026 30.83 10.587C31.205 9.144 31.414 7.816 31.429 6.655C31.45 5.494 31.352 4.468 30.658 3.578C28.481 0.802 25.423 0.03 23.059 0.005H22.84L22.839 0ZM22.776 0.855C25.011 0.834 27.869 1.459 29.921 4.083C30.385 4.672 30.521 5.531 30.505 6.594C30.489 7.657 30.292 8.922 29.932 10.313C29.24 13.012 27.921 16.146 26.073 18.965C26.1365 19.0129 26.2066 19.0516 26.281 19.08C26.666 19.241 27.546 19.376 29.306 19.017C29.749 18.922 30.073 18.861 30.411 19.116C30.493 19.1852 30.5578 19.2725 30.6001 19.3711C30.6425 19.4697 30.6613 19.5769 30.655 19.684C30.6367 19.8464 30.5757 20.001 30.478 20.132C30.139 20.641 29.469 21.127 28.609 21.528C27.849 21.881 26.754 22.064 25.792 22.075C25.303 22.08 24.855 22.043 24.473 21.923L24.453 21.919C24.306 23.33 23.969 26.122 23.749 27.392C23.573 28.417 23.265 29.236 22.677 29.845C22.088 30.46 21.26 30.824 20.14 31.064C18.755 31.361 17.749 31.043 17.099 30.496C16.449 29.949 16.151 29.22 15.974 28.777C15.85 28.47 15.787 28.074 15.725 27.542C15.6569 26.9068 15.6115 26.2694 15.589 25.631C15.548 24.511 15.532 23.391 15.548 22.266C14.9702 22.7958 14.2524 23.1484 13.48 23.282C12.559 23.438 11.741 23.282 11.252 23.162C11.0107 23.1005 10.778 23.0094 10.559 22.891C10.33 22.771 10.116 22.636 9.97096 22.364C9.8874 22.2082 9.86155 22.028 9.89796 21.855C9.94119 21.6793 10.0423 21.5233 10.185 21.412C10.45 21.197 10.8 21.079 11.325 20.969C12.284 20.77 12.622 20.636 12.825 20.473C12.997 20.338 13.196 20.057 13.538 19.645C13.538 19.63 13.538 19.609 13.533 19.593C12.9133 19.5741 12.3067 19.4101 11.762 19.114C11.565 19.322 10.538 20.406 9.29396 21.906C8.77296 22.53 8.19496 22.89 7.58096 22.917C6.97196 22.942 6.41796 22.636 5.94996 22.182C5.01296 21.27 4.26196 19.702 3.61096 17.931C2.95996 16.16 2.43396 14.187 2.05396 12.51C1.67896 10.827 1.45496 9.473 1.42296 8.822C1.28296 6.046 1.93396 4.177 3.04796 2.994C4.16196 1.811 5.68896 1.369 7.17896 1.281C9.85096 1.13 12.392 2.062 12.903 2.26C13.892 1.588 15.168 1.172 16.762 1.197C17.5173 1.20811 18.269 1.30609 19.002 1.489L19.029 1.473C19.3515 1.36131 19.68 1.26783 20.013 1.193C20.918 0.980604 21.8434 0.86694 22.773 0.854L22.776 0.855ZM22.979 1.745H22.782C22.022 1.754 21.255 1.844 20.511 2.005C22.172 2.74 23.427 3.869 24.312 5.005C24.927 5.786 25.432 6.645 25.817 7.562C25.969 7.917 26.068 8.213 26.12 8.442C26.151 8.557 26.167 8.655 26.177 8.754C26.177 8.806 26.182 8.859 26.156 8.947C26.156 8.952 26.151 8.963 26.151 8.968C26.194 10.135 25.902 10.925 25.864 12.04C25.839 12.848 26.047 13.796 26.099 14.832C26.146 15.805 26.027 16.873 25.396 17.925C25.448 17.988 25.495 18.05 25.547 18.118C27.219 15.482 28.427 12.571 29.068 10.086C29.412 8.747 29.593 7.534 29.609 6.577C29.625 5.618 29.448 4.92 29.218 4.629C27.426 2.342 25.005 1.758 22.978 1.744L22.979 1.745ZM16.588 2.088C15.016 2.093 13.885 2.568 13.027 3.281C12.14 4.021 11.547 5.026 11.162 6.062C10.698 7.286 10.537 8.473 10.474 9.281L10.495 9.27C11.0502 8.95911 11.6463 8.72785 12.266 8.583C12.933 8.426 13.657 8.379 14.307 8.635C14.964 8.884 15.5 9.483 15.698 10.384C16.637 14.728 15.407 16.343 14.954 17.561C14.782 18.004 14.631 18.452 14.511 18.91C14.568 18.899 14.626 18.883 14.683 18.878C15.006 18.853 15.255 18.957 15.402 19.019C15.861 19.211 16.173 19.607 16.345 20.06C16.3872 20.1837 16.4183 20.3108 16.438 20.44C16.4552 20.494 16.4643 20.5503 16.465 20.607C16.4125 22.268 16.4175 23.9303 16.48 25.591C16.512 26.31 16.559 26.94 16.616 27.44C16.673 27.935 16.751 28.315 16.804 28.445C16.975 28.872 17.225 29.429 17.679 29.809C18.127 30.19 18.772 30.44 19.955 30.19C20.98 29.966 21.611 29.663 22.032 29.226C22.455 28.783 22.704 28.174 22.865 27.242C23.11 25.841 23.594 21.778 23.652 21.018C23.627 20.439 23.709 19.997 23.897 19.658C24.084 19.314 24.376 19.101 24.632 18.986C24.756 18.929 24.876 18.893 24.975 18.861C24.8702 18.7149 24.7625 18.5708 24.652 18.429C24.287 17.9861 23.9869 17.4935 23.761 16.966C23.657 16.7448 23.5422 16.5289 23.417 16.319C23.241 16.002 23.017 15.6 22.782 15.147C22.313 14.251 21.803 13.158 21.537 12.095C21.272 11.032 21.236 9.934 21.913 9.163C22.512 8.475 23.569 8.19 25.146 8.351C25.099 8.21 25.074 8.09 24.995 7.908C24.6363 7.06555 24.1686 6.27379 23.604 5.553C22.265 3.84 20.093 2.141 16.745 2.084L16.588 2.088ZM7.73496 2.156C7.56649 2.15582 7.39807 2.16116 7.22996 2.172C5.88096 2.251 4.60996 2.64 3.69796 3.604C2.78696 4.573 2.18896 6.151 2.31796 8.771C2.34496 9.271 2.55796 10.656 2.92696 12.307C3.29796 13.959 3.82296 15.902 4.45396 17.62C5.08296 19.333 5.84496 20.828 6.57396 21.536C6.93796 21.885 7.25496 22.031 7.54196 22.021C7.82896 22.005 8.17796 21.838 8.60496 21.328C9.37985 20.393 10.1843 19.4829 11.017 18.599C10.4264 18.0849 9.9747 17.4305 9.70348 16.696C9.43226 15.9615 9.35023 15.1705 9.46496 14.396C9.59996 13.412 9.62096 12.489 9.59996 11.76C9.58496 11.052 9.53696 10.584 9.53696 10.287V10.255L9.53196 10.246C9.53196 8.709 9.80396 7.189 10.324 5.746C10.699 4.75 11.252 3.746 12.084 2.927C11.267 2.656 9.81296 2.251 8.24096 2.172C8.07284 2.16119 7.90442 2.15585 7.73596 2.156H7.73496ZM24.265 9.197C23.36 9.213 22.854 9.448 22.584 9.749C22.208 10.182 22.172 10.942 22.407 11.88C22.64 12.817 23.126 13.864 23.579 14.735C23.803 15.172 24.022 15.563 24.198 15.88C24.381 16.203 24.511 16.427 24.589 16.625C24.662 16.802 24.746 16.958 24.829 17.104C25.178 16.364 25.241 15.64 25.204 14.88C25.157 13.943 24.939 12.984 24.975 12.016C25.012 10.88 25.236 10.14 25.252 9.265C24.9254 9.22182 24.5964 9.1991 24.267 9.197H24.265ZM13.287 9.355C13.011 9.355 12.735 9.391 12.464 9.454C11.9269 9.58318 11.4098 9.78468 10.927 10.053C10.7645 10.1409 10.6096 10.2423 10.464 10.356L10.432 10.381C10.443 10.58 10.479 11.048 10.495 11.746C10.511 12.506 10.495 13.474 10.35 14.522C10.027 16.803 11.683 18.689 13.626 18.694C13.741 18.225 13.927 17.75 14.115 17.251C14.656 15.792 15.719 14.73 14.823 10.574C14.678 9.897 14.386 9.621 13.984 9.465C13.7603 9.38626 13.524 9.34932 13.287 9.356V9.355ZM23.844 9.625H23.912C23.995 9.63 24.079 9.636 24.151 9.656C24.216 9.66873 24.278 9.69349 24.334 9.729C24.3599 9.74459 24.3822 9.76563 24.3993 9.79066C24.4164 9.81569 24.4279 9.84412 24.433 9.874V9.885C24.4327 9.94895 24.4165 10.0118 24.386 10.068C24.3466 10.1398 24.2978 10.2061 24.241 10.265C24.1065 10.4153 23.9242 10.5146 23.725 10.546C23.5322 10.5707 23.3371 10.5226 23.178 10.411C23.1149 10.3653 23.0572 10.3126 23.006 10.254C22.961 10.2067 22.9316 10.1466 22.922 10.082C22.9161 10.0204 22.9348 9.95893 22.974 9.911C23.0203 9.86368 23.0731 9.82326 23.131 9.791C23.26 9.718 23.432 9.666 23.631 9.639C23.703 9.63 23.776 9.624 23.844 9.619V9.625ZM13.416 9.849C13.484 9.849 13.563 9.854 13.636 9.864C13.844 9.896 14.021 9.948 14.161 10.031C14.2296 10.0644 14.29 10.1126 14.338 10.172C14.3899 10.2347 14.416 10.3148 14.411 10.396C14.3967 10.473 14.3622 10.5448 14.311 10.604C14.2561 10.6708 14.1914 10.7288 14.119 10.776C13.9457 10.9005 13.7315 10.9545 13.52 10.927C13.3056 10.8925 13.1092 10.7864 12.963 10.626C12.9015 10.56 12.8488 10.4864 12.806 10.407C12.7593 10.3362 12.7391 10.2512 12.749 10.167C12.77 10.027 12.89 9.948 13.005 9.907C13.136 9.864 13.276 9.85 13.416 9.855V9.849ZM25.495 19.64H25.49C25.298 19.713 25.137 19.74 25.001 19.803C24.8633 19.8549 24.7502 19.9566 24.684 20.088C24.595 20.24 24.528 20.511 24.548 20.973C24.6081 21.0163 24.6755 21.0484 24.747 21.068C24.971 21.136 25.356 21.183 25.783 21.177C26.632 21.166 27.679 20.969 28.236 20.708C28.6912 20.497 29.1138 20.2219 29.491 19.891C27.632 20.271 26.586 20.172 25.939 19.907C25.78 19.8382 25.631 19.7484 25.496 19.64H25.495ZM14.787 19.765H14.76C14.688 19.77 14.588 19.797 14.385 20.016C13.921 20.536 13.76 20.864 13.38 21.167C12.995 21.474 12.5 21.636 11.505 21.839C11.2927 21.877 11.0861 21.9415 10.89 22.031C10.926 22.063 10.926 22.074 10.983 22.099C11.13 22.183 11.316 22.251 11.468 22.292C11.895 22.396 12.592 22.521 13.327 22.396C14.056 22.271 14.816 21.921 15.468 21.011C15.583 20.855 15.592 20.62 15.499 20.37C15.406 20.126 15.202 19.907 15.062 19.85C14.9743 19.8092 14.8814 19.781 14.786 19.766L14.787 19.765Z" width="32" height="32"/>
    </symbol>

    <symbol id="icon-python" viewBox="0 0 28 29">
      <path d="M27.4875 11.1028C27.0063 9.17151 26.0938 7.71526 24.15 7.71526H21.6438V10.6778C21.6438 12.9778 19.6938 14.9153 17.4688 14.9153H10.7938C8.9688 14.9153 7.4563 16.4778 7.4563 18.309V24.6715C7.4563 26.484 9.0313 27.5465 10.7938 28.0653C12.9063 28.684 14.9375 28.7965 17.4688 28.0653C19.15 27.5778 20.8063 26.5965 20.8063 24.6715V22.1278H14.1375V21.2778H24.15C26.0938 21.2778 26.8125 19.9215 27.4875 17.8903C28.1875 15.7965 28.1563 13.784 27.4875 11.1028ZM17.8875 23.8215C18.5813 23.8215 19.1438 24.3903 19.1438 25.0903C19.1438 25.7965 18.5813 26.3653 17.8875 26.3653C17.2 26.3653 16.6313 25.7903 16.6313 25.0903C16.6375 24.384 17.2 23.8215 17.8875 23.8215ZM10.4875 14.0778H17.1625C19.0188 14.0778 20.5 12.5465 20.5 10.684V4.31526C20.5 2.50276 18.975 1.14651 17.1625 0.840257C14.925 0.471507 12.4938 0.490257 10.4875 0.846507C7.66255 1.34651 7.15005 2.39026 7.15005 4.32151V6.86526H13.8313V7.71526H4.6438C2.70005 7.71526 1.00005 8.88401 0.468797 11.1028C-0.143703 13.6465 -0.168703 15.234 0.468797 17.8903C0.943797 19.8653 2.07505 21.2778 4.0188 21.2778H6.31255V18.2278C6.31255 16.0215 8.2188 14.0778 10.4875 14.0778ZM10.0688 5.16526C9.37505 5.16526 8.81255 4.59651 8.81255 3.89651C8.8188 3.19026 9.37505 2.62151 10.0688 2.62151C10.7563 2.62151 11.325 3.19651 11.325 3.89651C11.325 4.59651 10.7625 5.16526 10.0688 5.16526Z" width="28" height="29"/>
    </symbol>

    <symbol id="icon-react" viewBox="0 0 32 29">
      <path d="M26.1375 9.075C25.8 8.9625 25.4625 8.85625 25.125 8.75625C25.1812 8.525 25.2312 8.29375 25.2812 8.0625C26.05 4.3375 25.5437 1.34375 23.8375 0.35625C22.1937 -0.5875 19.5125 0.39375 16.8 2.75625C16.5312 2.9875 16.2687 3.23125 16.0187 3.475C15.85 3.3125 15.675 3.15 15.5 2.99375C12.6562 0.46875 9.80625 -0.593749 8.1 0.400001C6.4625 1.35 5.975 4.16875 6.6625 7.69375C6.73125 8.04375 6.80625 8.3875 6.89375 8.7375C6.49375 8.85 6.1 8.975 5.73125 9.10625C2.39375 10.2625 0 12.0875 0 13.975C0 15.925 2.55 17.8813 6.01875 19.0688C6.3 19.1625 6.58125 19.2562 6.86875 19.3375C6.775 19.7125 6.69375 20.0812 6.61875 20.4625C5.9625 23.9312 6.475 26.6812 8.1125 27.625C9.8 28.6 12.6375 27.6 15.4 25.1812C15.6187 24.9875 15.8375 24.7875 16.0562 24.575C16.3312 24.8438 16.6188 25.1 16.9062 25.35C19.5812 27.65 22.225 28.5813 23.8563 27.6375C25.5438 26.6625 26.0938 23.7063 25.3813 20.1063C25.325 19.8313 25.2625 19.55 25.1938 19.2625C25.3938 19.2063 25.5875 19.1437 25.7812 19.0812C29.3875 17.8875 32 15.9563 32 13.975C32 12.0813 29.5375 10.2437 26.1375 9.075V9.075ZM17.6812 3.76875C20.0062 1.74375 22.175 0.95 23.1625 1.51875C24.2188 2.125 24.625 4.575 23.9625 7.79375C23.9187 8.00625 23.875 8.2125 23.8188 8.41875C22.4313 8.10625 21.025 7.88125 19.6125 7.75625C18.8 6.59375 17.9125 5.48125 16.95 4.4375C17.1938 4.20625 17.4312 3.9875 17.6812 3.76875V3.76875ZM10.45 17.2188C10.7687 17.7625 11.0938 18.3062 11.4375 18.8375C10.4625 18.7312 9.49375 18.575 8.5375 18.3687C8.8125 17.4687 9.15625 16.5375 9.55625 15.5875C9.84375 16.1375 10.1375 16.6812 10.45 17.2188V17.2188ZM8.55625 9.7C9.45625 9.5 10.4125 9.3375 11.4062 9.2125C11.075 9.73125 10.75 10.2625 10.4438 10.8C10.1375 11.3313 9.8375 11.875 9.55625 12.425C9.1625 11.4938 8.83125 10.5812 8.55625 9.7ZM10.2688 14.0063C10.6813 13.1438 11.1312 12.3 11.6062 11.4688C12.0812 10.6375 12.5938 9.83125 13.1313 9.0375C14.0688 8.96875 15.025 8.93125 16 8.93125C16.975 8.93125 17.9375 8.96875 18.8687 9.0375C19.4 9.825 19.9063 10.6313 20.3875 11.4563C20.8688 12.2813 21.3187 13.125 21.7437 13.9812C21.325 14.8437 20.875 15.6938 20.3937 16.5312C19.9187 17.3625 19.4125 18.1687 18.8813 18.9688C17.95 19.0375 16.9812 19.0688 16 19.0688C15.0188 19.0688 14.0687 19.0375 13.15 18.9813C12.6062 18.1875 12.0938 17.375 11.6125 16.5438C11.1313 15.7125 10.6875 14.8688 10.2688 14.0063ZM21.5562 17.2062C21.875 16.6562 22.175 16.1 22.4688 15.5375C22.8688 16.4438 23.2187 17.3625 23.525 18.3062C22.5562 18.525 21.575 18.6937 20.5875 18.8062C20.925 18.2812 21.2437 17.7437 21.5562 17.2062ZM22.4562 12.425C22.1625 11.875 21.8625 11.325 21.55 10.7875C21.2437 10.2563 20.925 9.73125 20.5938 9.2125C21.6 9.3375 22.5625 9.50625 23.4625 9.7125C23.175 10.6375 22.8375 11.5375 22.4562 12.425V12.425ZM16.0125 5.39375C16.6688 6.10625 17.2875 6.85625 17.8625 7.63125C16.625 7.575 15.3813 7.575 14.1438 7.63125C14.7563 6.825 15.3875 6.075 16.0125 5.39375ZM8.7625 1.5625C9.8125 0.95 12.1438 1.825 14.6 4C14.7563 4.1375 14.9125 4.2875 15.075 4.4375C14.1062 5.48125 13.2125 6.59375 12.3938 7.75625C10.9813 7.88125 9.58125 8.1 8.19375 8.40625C8.1125 8.0875 8.04375 7.7625 7.975 7.4375C7.3875 4.4125 7.775 2.13125 8.7625 1.5625V1.5625ZM7.23125 18.0375C6.96875 17.9625 6.7125 17.8813 6.45625 17.7938C5.125 17.375 3.6125 16.7125 2.51875 15.8438C1.8875 15.4062 1.4625 14.7313 1.34375 13.975C1.34375 12.8313 3.31875 11.3687 6.16875 10.375C6.525 10.25 6.8875 10.1375 7.25 10.0312C7.675 11.3875 8.1875 12.7188 8.78125 14.0063C8.18125 15.3125 7.6625 16.6625 7.23125 18.0375V18.0375ZM14.5188 24.1625C13.4875 25.1063 12.2937 25.8562 10.9937 26.3687C10.3 26.7 9.5 26.7313 8.7875 26.45C7.79375 25.875 7.38125 23.6688 7.94375 20.7C8.0125 20.35 8.0875 20 8.175 19.6562C9.575 19.9563 10.9875 20.1625 12.4187 20.2687C13.2437 21.4375 14.15 22.5563 15.1187 23.6063C14.9187 23.8 14.7188 23.9875 14.5188 24.1625ZM16.05 22.6437C15.4125 21.9562 14.775 21.1938 14.1562 20.375C14.7563 20.4 15.375 20.4125 16 20.4125C16.6438 20.4125 17.275 20.4 17.9 20.3687C17.325 21.1625 16.7062 21.9187 16.05 22.6437V22.6437ZM24.2188 24.5187C24.1625 25.2812 23.7875 25.9938 23.1875 26.475C22.1938 27.05 20.075 26.3 17.7875 24.3375C17.525 24.1125 17.2625 23.8687 16.9937 23.6187C17.95 22.5625 18.8313 21.4437 19.6313 20.2687C21.0625 20.15 22.4875 19.9312 23.8937 19.6125C23.9562 19.8687 24.0125 20.125 24.0625 20.375C24.3688 21.725 24.4188 23.1312 24.2188 24.5187V24.5187ZM25.3563 17.8C25.1813 17.8562 25.0063 17.9125 24.825 17.9625C24.3875 16.6 23.85 15.2688 23.2313 13.975C23.8313 12.7 24.3375 11.3875 24.7625 10.0437C25.0875 10.1375 25.4 10.2375 25.7 10.3375C28.6125 11.3375 30.6562 12.825 30.6562 13.9625C30.6562 15.1875 28.475 16.7687 25.3563 17.8ZM16 16.8625C17.5812 16.8625 18.8625 15.5812 18.8625 14C18.8625 12.4188 17.5812 11.1375 16 11.1375C14.4188 11.1375 13.1375 12.4188 13.1375 14C13.1375 15.5812 14.4188 16.8625 16 16.8625Z" width="32" height="29"/>
    </symbol>

    <symbol id="icon-redux" viewBox="0 0 32 32">
      <path d="M22.177 22.005C23.338 21.906 24.234 20.885 24.177 19.666C24.114 18.447 23.114 17.469 21.901 17.469H21.817C21.2129 17.4906 20.6421 17.7513 20.2302 18.1936C19.8182 18.636 19.5987 19.2239 19.6201 19.828C19.6611 20.469 19.921 20.984 20.281 21.364C18.8801 24.083 16.7861 26.079 13.6041 27.76C11.4691 28.875 9.21305 29.297 7.01605 28.995C5.17705 28.74 3.74005 27.918 2.86005 26.599C1.54105 24.599 1.42105 22.448 2.52105 20.287C3.32205 18.73 4.52105 17.588 5.31705 17.031C5.0778 16.361 4.89156 15.6732 4.76005 14.974C-1.15595 19.209 -0.55195 25.006 1.24505 27.741C2.58405 29.741 5.31705 31.017 8.31205 31.017C9.11505 31.017 9.95305 30.96 10.7711 30.756C15.9701 29.756 19.9021 26.641 22.156 22.048L22.177 22.005ZM29.307 17.011C26.214 13.375 21.656 11.375 16.4641 11.375H15.7811C15.4481 10.64 14.6661 10.178 13.7861 10.178H13.7291C12.4691 10.178 11.489 11.261 11.5301 12.517C11.5731 13.714 12.5871 14.714 13.8061 14.714H13.9061C14.3386 14.6964 14.7569 14.5551 15.1114 14.3067C15.466 14.0584 15.7418 13.7135 15.9061 13.313H16.6451C19.7241 13.313 22.6361 14.214 25.2971 15.97C27.3281 17.307 28.792 19.069 29.609 21.167C30.328 22.88 30.286 24.563 29.546 25.964C28.411 28.156 26.489 29.317 23.958 29.317C22.3591 29.317 20.802 28.817 19.9991 28.458C19.5201 28.854 18.7181 29.515 18.139 29.917C19.9 30.713 21.6761 31.172 23.3951 31.172C27.291 31.172 30.187 28.979 31.286 26.86C32.483 24.464 32.385 20.427 29.327 16.969L29.307 17.011ZM8.65105 22.724C8.67838 23.3124 8.93001 23.8679 9.35424 24.2765C9.77846 24.6851 10.3431 24.9158 10.9321 24.921H11.0111C11.3113 24.9139 11.6071 24.8468 11.8811 24.7237C12.155 24.6006 12.4016 24.4239 12.6063 24.2041C12.811 23.9843 12.9697 23.7258 13.073 23.4438C13.1764 23.1618 13.2223 22.862 13.2081 22.562C13.2081 21.363 12.1721 20.363 10.9531 20.363H10.8691C10.7921 20.363 10.6721 20.363 10.5681 20.406C8.91205 17.609 8.21305 14.609 8.47305 11.374C8.63005 8.937 9.43205 6.822 10.8691 5.062C12.0681 3.567 14.3221 2.822 15.8641 2.786C20.1771 2.702 21.979 8.082 22.115 10.218L24.115 10.817C23.651 4.265 19.5791 0.828003 15.6831 0.828003C12.0271 0.828003 8.65105 3.484 7.29205 7.38C5.43705 12.579 6.65605 17.568 8.93205 21.568C8.73505 21.823 8.61505 22.287 8.65105 22.724Z" width="32" height="32"/>
    </symbol>

    <symbol id="icon-sass" viewBox="0 0 32 25">
      <path d="M15.0919 18.946C15.0769 18.976 15.0619 19 15.0919 18.946V18.946ZM27.5484 14.596C26.5428 14.5957 25.5506 14.8266 24.6484 15.271C24.3534 14.676 24.0484 14.156 23.9984 13.766C23.9384 13.311 23.8734 13.041 23.9434 12.501C24.0134 11.961 24.3284 11.196 24.3234 11.141C24.3184 11.086 24.2534 10.811 23.6084 10.806C22.9634 10.801 22.4084 10.931 22.3439 11.101C22.23 11.4117 22.1414 11.731 22.0789 12.056C21.9639 12.641 20.7894 14.731 20.1244 15.821C19.9044 15.396 19.7194 15.021 19.6794 14.721C19.6194 14.266 19.5544 13.996 19.6244 13.456C19.6944 12.916 20.0094 12.151 20.0044 12.096C19.9994 12.041 19.9344 11.766 19.2899 11.761C18.6454 11.756 18.0899 11.886 18.0249 12.056C17.9599 12.226 17.8899 12.626 17.7599 13.011C17.6299 13.396 16.0654 16.876 15.6559 17.781C15.4459 18.241 15.2659 18.611 15.1359 18.861C15.1159 18.901 15.1009 18.926 15.0909 18.946C15.1059 18.921 15.1159 18.896 15.1159 18.906C15.0059 19.121 14.9409 19.241 14.9409 19.241V19.246C14.8559 19.406 14.7609 19.551 14.7159 19.551C14.6859 19.551 14.6209 19.131 14.7309 18.556C14.9659 17.346 15.5209 15.466 15.5159 15.401C15.5109 15.366 15.6209 15.041 15.1509 14.866C14.6959 14.701 14.5309 14.976 14.4909 14.976C14.4509 14.976 14.4209 15.076 14.4209 15.076C14.4209 15.076 14.9259 12.956 13.4514 12.956C12.5314 12.956 11.2514 13.966 10.6224 14.881C10.2274 15.096 9.37244 15.561 8.47244 16.056C8.12744 16.246 7.77244 16.441 7.43744 16.626C7.41244 16.601 7.39244 16.576 7.36744 16.551C5.57794 14.641 2.27394 13.291 2.41394 10.726C2.46394 9.79099 2.78894 7.33599 8.76744 4.35599C13.6674 1.91599 17.5849 2.58599 18.2594 4.07599C19.2294 6.20099 16.1649 10.156 11.0764 10.726C9.13694 10.941 8.11744 10.191 7.86244 9.91099C7.59744 9.61599 7.55744 9.60099 7.45744 9.65599C7.29244 9.74599 7.39744 10.006 7.45744 10.161C7.60744 10.556 8.23244 11.256 9.29694 11.606C10.2319 11.911 12.5059 12.081 15.2554 11.016C18.3444 9.82599 20.7489 6.51099 20.0439 3.73599C19.3259 0.915989 14.6499 -0.00901079 10.2284 1.56099C7.59394 2.49599 4.74494 3.96599 2.69544 5.88099C0.260944 8.16099 -0.128556 10.146 0.0314439 10.976C0.600944 13.921 4.65994 15.841 6.28444 17.261C6.20444 17.306 6.12944 17.346 6.05944 17.386C5.24494 17.791 2.15044 19.411 1.37594 21.121C0.500944 23.061 1.52094 24.451 2.19044 24.641C4.27994 25.221 6.41944 24.176 7.56894 22.461C8.71844 20.746 8.57894 18.506 8.04894 17.486C8.04394 17.471 8.03394 17.461 8.02894 17.446C8.23894 17.321 8.45394 17.196 8.66894 17.071C9.08344 16.826 9.48844 16.601 9.84344 16.406C9.64344 16.946 9.49844 17.596 9.42344 18.536C9.33344 19.636 9.78844 21.061 10.3784 21.621C10.6384 21.866 10.9529 21.871 11.1479 21.871C11.8379 21.871 12.1479 21.301 12.4924 20.621C12.9174 19.791 13.2924 18.826 13.2924 18.826C13.2924 18.826 12.8224 21.436 14.1074 21.436C14.5769 21.436 15.0469 20.831 15.2574 20.521V20.526C15.2574 20.526 15.2674 20.506 15.2924 20.466C15.3424 20.391 15.3674 20.346 15.3674 20.346V20.331C15.5574 20.006 15.9724 19.261 16.5969 18.031C17.4069 16.441 18.1814 14.456 18.1814 14.456C18.2563 14.8923 18.3598 15.3233 18.4914 15.746C18.6314 16.221 18.9264 16.741 19.1614 17.246C18.9714 17.506 18.8564 17.656 18.8564 17.656C18.8568 17.6598 18.8586 17.6634 18.8614 17.666C18.7114 17.866 18.5414 18.081 18.3664 18.291C17.7269 19.051 16.9664 19.921 16.8664 20.171C16.7464 20.466 16.7764 20.686 17.0064 20.856C17.1764 20.986 17.4764 21.006 17.7909 20.981C18.3659 20.941 18.7709 20.801 18.9659 20.711C19.3254 20.5821 19.6652 20.4037 19.9754 20.181C20.6004 19.721 20.9804 19.061 20.9454 18.191C20.9254 17.711 20.7704 17.231 20.5804 16.781C20.6354 16.701 20.6954 16.616 20.7504 16.531C21.7399 15.086 22.5049 13.5 22.5049 13.5C22.5798 13.9363 22.6833 14.3673 22.8149 14.79C22.9349 15.195 23.1694 15.64 23.3844 16.075C22.4549 16.83 21.8799 17.705 21.6799 18.28C21.3099 19.345 21.5999 19.825 22.1449 19.935C22.3899 19.985 22.7399 19.87 22.9999 19.76C23.3861 19.6314 23.7502 19.4442 24.0794 19.205C24.7044 18.745 25.3089 18.1 25.2689 17.225C25.2539 16.83 25.1439 16.435 24.9989 16.055C25.7839 15.725 26.8034 15.545 28.1034 15.695C30.8874 16.02 31.4324 17.76 31.3274 18.485C31.2224 19.21 30.6374 19.615 30.4424 19.735C30.2474 19.855 30.1874 19.9 30.2024 19.99C30.2274 20.12 30.3174 20.115 30.4824 20.085C30.7124 20.045 31.9419 19.495 31.9969 18.15C32.0769 16.45 30.4424 14.58 27.5469 14.595L27.5484 14.596ZM6.08944 21.831C5.16994 22.836 3.87994 23.216 3.32544 22.896C2.73044 22.55 2.96544 21.071 4.09994 20C4.78994 19.35 5.67944 18.75 6.26944 18.38C6.40444 18.3 6.59944 18.18 6.83944 18.035C6.87944 18.01 6.89944 18 6.89944 18C6.94444 17.97 6.99444 17.945 7.04444 17.915C7.45894 19.435 7.05944 20.775 6.08944 21.83V21.831ZM12.8074 17.261C12.4874 18.046 11.8129 20.046 11.4029 19.941C11.0529 19.851 10.8379 18.326 11.3329 16.826C11.5829 16.071 12.1129 15.171 12.4279 14.821C12.9324 14.256 13.4874 14.076 13.6174 14.301C13.7924 14.596 13.0074 16.771 12.8074 17.261ZM18.3574 19.911C18.2224 19.981 18.0974 20.026 18.0374 19.991C17.9924 19.966 18.0924 19.871 18.0924 19.871C18.0924 19.871 18.7874 19.126 19.0624 18.786C19.2224 18.586 19.4074 18.351 19.6069 18.091C19.6069 18.116 19.6119 18.141 19.6119 18.171C19.6054 19.066 18.7459 19.671 18.3559 19.911H18.3574ZM22.6364 18.936C22.5364 18.866 22.5514 18.631 22.8864 17.901C23.0164 17.616 23.3159 17.136 23.8364 16.676C23.8954 16.8501 23.9274 17.0322 23.9314 17.216C23.9264 18.341 23.1214 18.761 22.6369 18.936H22.6364Z" width="32" height="25"/>
    </symbol>

    <symbol id="icon-typescript" viewBox="0 0 32 32">
      <path d="M0 16.5714V32.5714H32V0.571426H0V16.5714ZM25.786 15.2954C26.5531 15.476 27.2503 15.878 27.791 16.4514C28.083 16.7634 28.52 17.3364 28.557 17.4774C28.567 17.5194 27.177 18.4514 26.333 18.9724C26.302 18.9934 26.177 18.8634 26.041 18.6594C25.63 18.0604 25.197 17.8004 24.536 17.7534C23.567 17.6904 22.942 18.1964 22.947 19.0454C22.9419 19.2532 22.9883 19.4589 23.082 19.6444C23.296 20.0874 23.697 20.3524 24.936 20.8894C27.228 21.8734 28.207 22.5244 28.816 23.4464C29.498 24.4774 29.649 26.1234 29.191 27.3524C28.681 28.6804 27.42 29.5864 25.649 29.8834C25.102 29.9824 23.8 29.9664 23.211 29.8574C21.925 29.6284 20.706 28.9924 19.956 28.1594C19.659 27.8364 19.086 26.9874 19.123 26.9304C19.139 26.9094 19.269 26.8264 19.415 26.7424L20.603 26.0544L21.525 25.5184L21.718 25.8044C21.989 26.2154 22.577 26.7784 22.932 26.9654C23.953 27.5074 25.354 27.4294 26.047 26.8094C26.328 26.5754 26.485 26.2154 26.464 25.8514C26.464 25.4814 26.417 25.3154 26.224 25.0384C25.974 24.6844 25.469 24.3824 24.026 23.7574C22.375 23.0434 21.661 22.6064 21.016 21.9034C20.61 21.4407 20.3097 20.895 20.136 20.3044C20.016 19.8514 19.985 18.7154 20.079 18.2624C20.418 16.6634 21.626 15.5544 23.36 15.2264C23.923 15.1174 25.235 15.1584 25.787 15.2944L25.786 15.2954ZM18.276 16.6344L18.286 17.9414H14.119V29.7804H11.171V17.9414H7.01V16.6604C7.01 15.9464 7.026 15.3534 7.046 15.3374C7.062 15.3164 9.593 15.3064 12.666 15.3114L18.26 15.3274L18.276 16.6344Z" width="32" height="32"/>
    </symbol>

    <symbol id="icon-vue" viewBox="0 0 32 28">
      <path d="M16 9.00187L12.5319 2.995H7.5675L16 17.6006L24.4325 2.995H19.4681L16 9.00187Z" />
<path d="M25.5875 2.995L16 19.6006L6.41251 2.995H0.983765L16 29.005L31.0163 2.995H25.5875Z" />
    </symbol>
  </defs>
</svg>