<svg width="32" height="33" viewBox="0 0 32 33" fill="none" xmlns="http://www.w3.org/2000/svg">
<path d="M0 16.5714V32.5714H32V0.571426H0V16.5714ZM25.786 15.2954C26.5531 15.476 27.2503 15.878 27.791 16.4514C28.083 16.7634 28.52 17.3364 28.557 17.4774C28.567 17.5194 27.177 18.4514 26.333 18.9724C26.302 18.9934 26.177 18.8634 26.041 18.6594C25.63 18.0604 25.197 17.8004 24.536 17.7534C23.567 17.6904 22.942 18.1964 22.947 19.0454C22.9419 19.2532 22.9883 19.4589 23.082 19.6444C23.296 20.0874 23.697 20.3524 24.936 20.8894C27.228 21.8734 28.207 22.5244 28.816 23.4464C29.498 24.4774 29.649 26.1234 29.191 27.3524C28.681 28.6804 27.42 29.5864 25.649 29.8834C25.102 29.9824 23.8 29.9664 23.211 29.8574C21.925 29.6284 20.706 28.9924 19.956 28.1594C19.659 27.8364 19.086 26.9874 19.123 26.9304C19.139 26.9094 19.269 26.8264 19.415 26.7424L20.603 26.0544L21.525 25.5184L21.718 25.8044C21.989 26.2154 22.577 26.7784 22.932 26.9654C23.953 27.5074 25.354 27.4294 26.047 26.8094C26.328 26.5754 26.485 26.2154 26.464 25.8514C26.464 25.4814 26.417 25.3154 26.224 25.0384C25.974 24.6844 25.469 24.3824 24.026 23.7574C22.375 23.0434 21.661 22.6064 21.016 21.9034C20.61 21.4407 20.3097 20.895 20.136 20.3044C20.016 19.8514 19.985 18.7154 20.079 18.2624C20.418 16.6634 21.626 15.5544 23.36 15.2264C23.923 15.1174 25.235 15.1584 25.787 15.2944L25.786 15.2954ZM18.276 16.6344L18.286 17.9414H14.119V29.7804H11.171V17.9414H7.01V16.6604C7.01 15.9464 7.026 15.3534 7.046 15.3374C7.062 15.3164 9.593 15.3064 12.666 15.3114L18.26 15.3274L18.276 16.6344Z" fill="#E7E3ED"/>
</svg>
