<svg width="32" height="32" viewBox="0 0 32 32" fill="none" xmlns="http://www.w3.org/2000/svg">
<path d="M22.177 22.005C23.338 21.906 24.234 20.885 24.177 19.666C24.114 18.447 23.114 17.469 21.901 17.469H21.817C21.2129 17.4906 20.6421 17.7513 20.2302 18.1936C19.8182 18.636 19.5987 19.2239 19.6201 19.828C19.6611 20.469 19.921 20.984 20.281 21.364C18.8801 24.083 16.7861 26.079 13.6041 27.76C11.4691 28.875 9.21305 29.297 7.01605 28.995C5.17705 28.74 3.74005 27.918 2.86005 26.599C1.54105 24.599 1.42105 22.448 2.52105 20.287C3.32205 18.73 4.52105 17.588 5.31705 17.031C5.0778 16.361 4.89156 15.6732 4.76005 14.974C-1.15595 19.209 -0.55195 25.006 1.24505 27.741C2.58405 29.741 5.31705 31.017 8.31205 31.017C9.11505 31.017 9.95305 30.96 10.7711 30.756C15.9701 29.756 19.9021 26.641 22.156 22.048L22.177 22.005ZM29.307 17.011C26.214 13.375 21.656 11.375 16.4641 11.375H15.7811C15.4481 10.64 14.6661 10.178 13.7861 10.178H13.7291C12.4691 10.178 11.489 11.261 11.5301 12.517C11.5731 13.714 12.5871 14.714 13.8061 14.714H13.9061C14.3386 14.6964 14.7569 14.5551 15.1114 14.3067C15.466 14.0584 15.7418 13.7135 15.9061 13.313H16.6451C19.7241 13.313 22.6361 14.214 25.2971 15.97C27.3281 17.307 28.792 19.069 29.609 21.167C30.328 22.88 30.286 24.563 29.546 25.964C28.411 28.156 26.489 29.317 23.958 29.317C22.3591 29.317 20.802 28.817 19.9991 28.458C19.5201 28.854 18.7181 29.515 18.139 29.917C19.9 30.713 21.6761 31.172 23.3951 31.172C27.291 31.172 30.187 28.979 31.286 26.86C32.483 24.464 32.385 20.427 29.327 16.969L29.307 17.011ZM8.65105 22.724C8.67838 23.3124 8.93001 23.8679 9.35424 24.2765C9.77846 24.6851 10.3431 24.9158 10.9321 24.921H11.0111C11.3113 24.9139 11.6071 24.8468 11.8811 24.7237C12.155 24.6006 12.4016 24.4239 12.6063 24.2041C12.811 23.9843 12.9697 23.7258 13.073 23.4438C13.1764 23.1618 13.2223 22.862 13.2081 22.562C13.2081 21.363 12.1721 20.363 10.9531 20.363H10.8691C10.7921 20.363 10.6721 20.363 10.5681 20.406C8.91205 17.609 8.21305 14.609 8.47305 11.374C8.63005 8.937 9.43205 6.822 10.8691 5.062C12.0681 3.567 14.3221 2.822 15.8641 2.786C20.1771 2.702 21.979 8.082 22.115 10.218L24.115 10.817C23.651 4.265 19.5791 0.828003 15.6831 0.828003C12.0271 0.828003 8.65105 3.484 7.29205 7.38C5.43705 12.579 6.65605 17.568 8.93205 21.568C8.73505 21.823 8.61505 22.287 8.65105 22.724Z" fill="#E7E3ED"/>
</svg>
