 <svg width="30" height="32" viewBox="0 0 30 32" fill="none" xmlns="http://www.w3.org/2000/svg">
<path d="M17.7341 3.66699L24.3121 7.46899C24.6182 7.1473 24.9949 6.90123 25.4125 6.75023C25.8301 6.59923 26.2771 6.54743 26.7182 6.59894C27.1592 6.65045 27.5823 6.80384 27.9538 7.04701C28.3254 7.29017 28.6353 7.61643 28.8591 7.99999C29.0802 8.38499 29.2086 8.8162 29.2341 9.25945C29.2597 9.7027 29.1816 10.1458 29.0062 10.5537C28.8307 10.9615 28.5627 11.3229 28.2234 11.6092C27.884 11.8954 27.4826 12.0988 27.0511 12.203V19.802C27.4834 19.904 27.8858 20.106 28.2259 20.3917C28.5661 20.6773 28.8345 21.0388 29.0098 21.447C29.185 21.8552 29.2621 22.2987 29.2349 22.7421C29.2076 23.1855 29.0769 23.6163 28.8531 24C28.6267 24.3907 28.3111 24.7222 27.932 24.9675C27.5529 25.2127 27.1211 25.3647 26.6719 25.4109C26.2228 25.4572 25.7691 25.3964 25.3479 25.2335C24.9268 25.0707 24.5502 24.8104 24.2491 24.474L17.7071 28.25C17.8488 28.6787 17.8868 29.135 17.818 29.5813C17.7491 30.0276 17.5753 30.4512 17.3108 30.8173C17.0464 31.1833 16.6989 31.4814 16.2968 31.687C15.8947 31.8926 15.4496 31.9999 14.9981 32C14.5542 32.0003 14.1164 31.897 13.7195 31.6982C13.3227 31.4994 12.9777 31.2107 12.7122 30.855C12.4467 30.4993 12.2679 30.0866 12.1901 29.6496C12.1123 29.2126 12.1376 28.7635 12.2641 28.338L5.68106 24.541C5.42255 24.8127 5.11295 25.0307 4.77 25.1826C4.42706 25.3344 4.05752 25.4171 3.68257 25.4258C3.30762 25.4345 2.93463 25.3692 2.58499 25.2335C2.23535 25.0978 1.91594 24.8944 1.64506 24.635C1.27604 24.2802 1.00906 23.8328 0.871984 23.3396C0.734911 22.8464 0.73278 22.3254 0.865812 21.8311C0.998845 21.3368 1.26216 20.8872 1.62826 20.5294C1.99436 20.1716 2.44981 19.9187 2.94706 19.797V12.198C2.54848 12.1031 2.17502 11.9235 1.85211 11.6713C1.52919 11.4191 1.2644 11.1003 1.07576 10.7366C0.887124 10.3729 0.779063 9.97283 0.758937 9.56361C0.73881 9.15439 0.80709 8.74564 0.959129 8.36518C1.11117 7.98472 1.3434 7.64148 1.64001 7.35883C1.93662 7.07619 2.29064 6.86076 2.67799 6.72723C3.06533 6.5937 3.4769 6.54519 3.88468 6.58501C4.29245 6.62483 4.68686 6.75205 5.04106 6.95799C5.27506 7.09299 5.49406 7.25999 5.68206 7.45799L12.2651 3.66099C12.0504 2.93642 12.1322 2.15624 12.4926 1.49202C12.8531 0.827799 13.4626 0.333921 14.1871 0.118991C14.6797 -0.028307 15.203 -0.0395901 15.7015 0.086337C16.2 0.212264 16.6552 0.47071 17.0188 0.834288C17.3823 1.19787 17.6408 1.65303 17.7667 2.15155C17.8926 2.65007 17.8814 3.17336 17.7341 3.66599V3.66699ZM17.0471 4.83899C17.0211 4.86499 17.0001 4.89099 16.9691 4.91699L25.5841 19.834C25.6201 19.824 25.6621 19.813 25.6931 19.803V12.194C25.3302 12.1043 24.9887 11.9438 24.688 11.7218C24.3872 11.4998 24.1333 11.2207 23.9407 10.9004C23.7481 10.58 23.6207 10.2248 23.5657 9.85514C23.5106 9.48544 23.5291 9.10852 23.6201 8.74599C23.6251 8.71499 23.6361 8.67799 23.6411 8.64699L17.0471 4.83899ZM13.0261 4.91699L12.9481 4.83899L6.35406 8.64099C6.56288 9.36688 6.47502 10.146 6.10976 10.8071C5.7445 11.4683 5.13172 11.9574 4.40606 12.167L4.30206 12.193V19.802L4.41706 19.833L13.0321 4.91599L13.0261 4.91699ZM15.7971 5.59399C15.2775 5.73999 14.7277 5.73999 14.2081 5.59399L5.59306 20.511C5.98406 20.886 6.26006 21.37 6.39506 21.902H23.6091C23.7391 21.371 24.0151 20.886 24.4111 20.506L15.7971 5.59399ZM17.1091 27.229L23.6611 23.443C23.6401 23.38 23.6251 23.318 23.6091 23.255H6.39006L6.35906 23.364L12.9481 27.166C13.2137 26.8901 13.5325 26.6708 13.8851 26.5213C14.2378 26.3718 14.617 26.2951 15.0001 26.296C15.8391 26.296 16.5891 26.655 17.1091 27.228V27.229Z" fill="#E7E3ED"/>
</svg>
