<svg width="32" height="29" viewBox="0 0 32 29" fill="none" xmlns="http://www.w3.org/2000/svg">
<path d="M26.1375 9.075C25.8 8.9625 25.4625 8.85625 25.125 8.75625C25.1812 8.525 25.2312 8.29375 25.2812 8.0625C26.05 4.3375 25.5437 1.34375 23.8375 0.35625C22.1937 -0.5875 19.5125 0.39375 16.8 2.75625C16.5312 2.9875 16.2687 3.23125 16.0187 3.475C15.85 3.3125 15.675 3.15 15.5 2.99375C12.6562 0.46875 9.80625 -0.593749 8.1 0.400001C6.4625 1.35 5.975 4.16875 6.6625 7.69375C6.73125 8.04375 6.80625 8.3875 6.89375 8.7375C6.49375 8.85 6.1 8.975 5.73125 9.10625C2.39375 10.2625 0 12.0875 0 13.975C0 15.925 2.55 17.8813 6.01875 19.0688C6.3 19.1625 6.58125 19.2562 6.86875 19.3375C6.775 19.7125 6.69375 20.0812 6.61875 20.4625C5.9625 23.9312 6.475 26.6812 8.1125 27.625C9.8 28.6 12.6375 27.6 15.4 25.1812C15.6187 24.9875 15.8375 24.7875 16.0562 24.575C16.3312 24.8438 16.6188 25.1 16.9062 25.35C19.5812 27.65 22.225 28.5813 23.8563 27.6375C25.5438 26.6625 26.0938 23.7063 25.3813 20.1063C25.325 19.8313 25.2625 19.55 25.1938 19.2625C25.3938 19.2063 25.5875 19.1437 25.7812 19.0812C29.3875 17.8875 32 15.9563 32 13.975C32 12.0813 29.5375 10.2437 26.1375 9.075V9.075ZM17.6812 3.76875C20.0062 1.74375 22.175 0.95 23.1625 1.51875C24.2188 2.125 24.625 4.575 23.9625 7.79375C23.9187 8.00625 23.875 8.2125 23.8188 8.41875C22.4313 8.10625 21.025 7.88125 19.6125 7.75625C18.8 6.59375 17.9125 5.48125 16.95 4.4375C17.1938 4.20625 17.4312 3.9875 17.6812 3.76875V3.76875ZM10.45 17.2188C10.7687 17.7625 11.0938 18.3062 11.4375 18.8375C10.4625 18.7312 9.49375 18.575 8.5375 18.3687C8.8125 17.4687 9.15625 16.5375 9.55625 15.5875C9.84375 16.1375 10.1375 16.6812 10.45 17.2188V17.2188ZM8.55625 9.7C9.45625 9.5 10.4125 9.3375 11.4062 9.2125C11.075 9.73125 10.75 10.2625 10.4438 10.8C10.1375 11.3313 9.8375 11.875 9.55625 12.425C9.1625 11.4938 8.83125 10.5812 8.55625 9.7ZM10.2688 14.0063C10.6813 13.1438 11.1312 12.3 11.6062 11.4688C12.0812 10.6375 12.5938 9.83125 13.1313 9.0375C14.0688 8.96875 15.025 8.93125 16 8.93125C16.975 8.93125 17.9375 8.96875 18.8687 9.0375C19.4 9.825 19.9063 10.6313 20.3875 11.4563C20.8688 12.2813 21.3187 13.125 21.7437 13.9812C21.325 14.8437 20.875 15.6938 20.3937 16.5312C19.9187 17.3625 19.4125 18.1687 18.8813 18.9688C17.95 19.0375 16.9812 19.0688 16 19.0688C15.0188 19.0688 14.0687 19.0375 13.15 18.9813C12.6062 18.1875 12.0938 17.375 11.6125 16.5438C11.1313 15.7125 10.6875 14.8688 10.2688 14.0063ZM21.5562 17.2062C21.875 16.6562 22.175 16.1 22.4688 15.5375C22.8688 16.4438 23.2187 17.3625 23.525 18.3062C22.5562 18.525 21.575 18.6937 20.5875 18.8062C20.925 18.2812 21.2437 17.7437 21.5562 17.2062ZM22.4562 12.425C22.1625 11.875 21.8625 11.325 21.55 10.7875C21.2437 10.2563 20.925 9.73125 20.5938 9.2125C21.6 9.3375 22.5625 9.50625 23.4625 9.7125C23.175 10.6375 22.8375 11.5375 22.4562 12.425V12.425ZM16.0125 5.39375C16.6688 6.10625 17.2875 6.85625 17.8625 7.63125C16.625 7.575 15.3813 7.575 14.1438 7.63125C14.7563 6.825 15.3875 6.075 16.0125 5.39375ZM8.7625 1.5625C9.8125 0.95 12.1438 1.825 14.6 4C14.7563 4.1375 14.9125 4.2875 15.075 4.4375C14.1062 5.48125 13.2125 6.59375 12.3938 7.75625C10.9813 7.88125 9.58125 8.1 8.19375 8.40625C8.1125 8.0875 8.04375 7.7625 7.975 7.4375C7.3875 4.4125 7.775 2.13125 8.7625 1.5625V1.5625ZM7.23125 18.0375C6.96875 17.9625 6.7125 17.8813 6.45625 17.7938C5.125 17.375 3.6125 16.7125 2.51875 15.8438C1.8875 15.4062 1.4625 14.7313 1.34375 13.975C1.34375 12.8313 3.31875 11.3687 6.16875 10.375C6.525 10.25 6.8875 10.1375 7.25 10.0312C7.675 11.3875 8.1875 12.7188 8.78125 14.0063C8.18125 15.3125 7.6625 16.6625 7.23125 18.0375V18.0375ZM14.5188 24.1625C13.4875 25.1063 12.2937 25.8562 10.9937 26.3687C10.3 26.7 9.5 26.7313 8.7875 26.45C7.79375 25.875 7.38125 23.6688 7.94375 20.7C8.0125 20.35 8.0875 20 8.175 19.6562C9.575 19.9563 10.9875 20.1625 12.4187 20.2687C13.2437 21.4375 14.15 22.5563 15.1187 23.6063C14.9187 23.8 14.7188 23.9875 14.5188 24.1625ZM16.05 22.6437C15.4125 21.9562 14.775 21.1938 14.1562 20.375C14.7563 20.4 15.375 20.4125 16 20.4125C16.6438 20.4125 17.275 20.4 17.9 20.3687C17.325 21.1625 16.7062 21.9187 16.05 22.6437V22.6437ZM24.2188 24.5187C24.1625 25.2812 23.7875 25.9938 23.1875 26.475C22.1938 27.05 20.075 26.3 17.7875 24.3375C17.525 24.1125 17.2625 23.8687 16.9937 23.6187C17.95 22.5625 18.8313 21.4437 19.6313 20.2687C21.0625 20.15 22.4875 19.9312 23.8937 19.6125C23.9562 19.8687 24.0125 20.125 24.0625 20.375C24.3688 21.725 24.4188 23.1312 24.2188 24.5187V24.5187ZM25.3563 17.8C25.1813 17.8562 25.0063 17.9125 24.825 17.9625C24.3875 16.6 23.85 15.2688 23.2313 13.975C23.8313 12.7 24.3375 11.3875 24.7625 10.0437C25.0875 10.1375 25.4 10.2375 25.7 10.3375C28.6125 11.3375 30.6562 12.825 30.6562 13.9625C30.6562 15.1875 28.475 16.7687 25.3563 17.8ZM16 16.8625C17.5812 16.8625 18.8625 15.5812 18.8625 14C18.8625 12.4188 17.5812 11.1375 16 11.1375C14.4188 11.1375 13.1375 12.4188 13.1375 14C13.1375 15.5812 14.4188 16.8625 16 16.8625Z" fill="#E7E3ED"/>
</svg>
