<svg width="32" height="25" viewBox="0 0 32 25" fill="none" xmlns="http://www.w3.org/2000/svg">
<path d="M15.0919 18.946C15.0769 18.976 15.0619 19 15.0919 18.946V18.946ZM27.5484 14.596C26.5428 14.5957 25.5506 14.8266 24.6484 15.271C24.3534 14.676 24.0484 14.156 23.9984 13.766C23.9384 13.311 23.8734 13.041 23.9434 12.501C24.0134 11.961 24.3284 11.196 24.3234 11.141C24.3184 11.086 24.2534 10.811 23.6084 10.806C22.9634 10.801 22.4084 10.931 22.3439 11.101C22.23 11.4117 22.1414 11.731 22.0789 12.056C21.9639 12.641 20.7894 14.731 20.1244 15.821C19.9044 15.396 19.7194 15.021 19.6794 14.721C19.6194 14.266 19.5544 13.996 19.6244 13.456C19.6944 12.916 20.0094 12.151 20.0044 12.096C19.9994 12.041 19.9344 11.766 19.2899 11.761C18.6454 11.756 18.0899 11.886 18.0249 12.056C17.9599 12.226 17.8899 12.626 17.7599 13.011C17.6299 13.396 16.0654 16.876 15.6559 17.781C15.4459 18.241 15.2659 18.611 15.1359 18.861C15.1159 18.901 15.1009 18.926 15.0909 18.946C15.1059 18.921 15.1159 18.896 15.1159 18.906C15.0059 19.121 14.9409 19.241 14.9409 19.241V19.246C14.8559 19.406 14.7609 19.551 14.7159 19.551C14.6859 19.551 14.6209 19.131 14.7309 18.556C14.9659 17.346 15.5209 15.466 15.5159 15.401C15.5109 15.366 15.6209 15.041 15.1509 14.866C14.6959 14.701 14.5309 14.976 14.4909 14.976C14.4509 14.976 14.4209 15.076 14.4209 15.076C14.4209 15.076 14.9259 12.956 13.4514 12.956C12.5314 12.956 11.2514 13.966 10.6224 14.881C10.2274 15.096 9.37244 15.561 8.47244 16.056C8.12744 16.246 7.77244 16.441 7.43744 16.626C7.41244 16.601 7.39244 16.576 7.36744 16.551C5.57794 14.641 2.27394 13.291 2.41394 10.726C2.46394 9.79099 2.78894 7.33599 8.76744 4.35599C13.6674 1.91599 17.5849 2.58599 18.2594 4.07599C19.2294 6.20099 16.1649 10.156 11.0764 10.726C9.13694 10.941 8.11744 10.191 7.86244 9.91099C7.59744 9.61599 7.55744 9.60099 7.45744 9.65599C7.29244 9.74599 7.39744 10.006 7.45744 10.161C7.60744 10.556 8.23244 11.256 9.29694 11.606C10.2319 11.911 12.5059 12.081 15.2554 11.016C18.3444 9.82599 20.7489 6.51099 20.0439 3.73599C19.3259 0.915989 14.6499 -0.00901079 10.2284 1.56099C7.59394 2.49599 4.74494 3.96599 2.69544 5.88099C0.260944 8.16099 -0.128556 10.146 0.0314439 10.976C0.600944 13.921 4.65994 15.841 6.28444 17.261C6.20444 17.306 6.12944 17.346 6.05944 17.386C5.24494 17.791 2.15044 19.411 1.37594 21.121C0.500944 23.061 1.52094 24.451 2.19044 24.641C4.27994 25.221 6.41944 24.176 7.56894 22.461C8.71844 20.746 8.57894 18.506 8.04894 17.486C8.04394 17.471 8.03394 17.461 8.02894 17.446C8.23894 17.321 8.45394 17.196 8.66894 17.071C9.08344 16.826 9.48844 16.601 9.84344 16.406C9.64344 16.946 9.49844 17.596 9.42344 18.536C9.33344 19.636 9.78844 21.061 10.3784 21.621C10.6384 21.866 10.9529 21.871 11.1479 21.871C11.8379 21.871 12.1479 21.301 12.4924 20.621C12.9174 19.791 13.2924 18.826 13.2924 18.826C13.2924 18.826 12.8224 21.436 14.1074 21.436C14.5769 21.436 15.0469 20.831 15.2574 20.521V20.526C15.2574 20.526 15.2674 20.506 15.2924 20.466C15.3424 20.391 15.3674 20.346 15.3674 20.346V20.331C15.5574 20.006 15.9724 19.261 16.5969 18.031C17.4069 16.441 18.1814 14.456 18.1814 14.456C18.2563 14.8923 18.3598 15.3233 18.4914 15.746C18.6314 16.221 18.9264 16.741 19.1614 17.246C18.9714 17.506 18.8564 17.656 18.8564 17.656C18.8568 17.6598 18.8586 17.6634 18.8614 17.666C18.7114 17.866 18.5414 18.081 18.3664 18.291C17.7269 19.051 16.9664 19.921 16.8664 20.171C16.7464 20.466 16.7764 20.686 17.0064 20.856C17.1764 20.986 17.4764 21.006 17.7909 20.981C18.3659 20.941 18.7709 20.801 18.9659 20.711C19.3254 20.5821 19.6652 20.4037 19.9754 20.181C20.6004 19.721 20.9804 19.061 20.9454 18.191C20.9254 17.711 20.7704 17.231 20.5804 16.781C20.6354 16.701 20.6954 16.616 20.7504 16.531C21.7399 15.086 22.5049 13.5 22.5049 13.5C22.5798 13.9363 22.6833 14.3673 22.8149 14.79C22.9349 15.195 23.1694 15.64 23.3844 16.075C22.4549 16.83 21.8799 17.705 21.6799 18.28C21.3099 19.345 21.5999 19.825 22.1449 19.935C22.3899 19.985 22.7399 19.87 22.9999 19.76C23.3861 19.6314 23.7502 19.4442 24.0794 19.205C24.7044 18.745 25.3089 18.1 25.2689 17.225C25.2539 16.83 25.1439 16.435 24.9989 16.055C25.7839 15.725 26.8034 15.545 28.1034 15.695C30.8874 16.02 31.4324 17.76 31.3274 18.485C31.2224 19.21 30.6374 19.615 30.4424 19.735C30.2474 19.855 30.1874 19.9 30.2024 19.99C30.2274 20.12 30.3174 20.115 30.4824 20.085C30.7124 20.045 31.9419 19.495 31.9969 18.15C32.0769 16.45 30.4424 14.58 27.5469 14.595L27.5484 14.596ZM6.08944 21.831C5.16994 22.836 3.87994 23.216 3.32544 22.896C2.73044 22.55 2.96544 21.071 4.09994 20C4.78994 19.35 5.67944 18.75 6.26944 18.38C6.40444 18.3 6.59944 18.18 6.83944 18.035C6.87944 18.01 6.89944 18 6.89944 18C6.94444 17.97 6.99444 17.945 7.04444 17.915C7.45894 19.435 7.05944 20.775 6.08944 21.83V21.831ZM12.8074 17.261C12.4874 18.046 11.8129 20.046 11.4029 19.941C11.0529 19.851 10.8379 18.326 11.3329 16.826C11.5829 16.071 12.1129 15.171 12.4279 14.821C12.9324 14.256 13.4874 14.076 13.6174 14.301C13.7924 14.596 13.0074 16.771 12.8074 17.261ZM18.3574 19.911C18.2224 19.981 18.0974 20.026 18.0374 19.991C17.9924 19.966 18.0924 19.871 18.0924 19.871C18.0924 19.871 18.7874 19.126 19.0624 18.786C19.2224 18.586 19.4074 18.351 19.6069 18.091C19.6069 18.116 19.6119 18.141 19.6119 18.171C19.6054 19.066 18.7459 19.671 18.3559 19.911H18.3574ZM22.6364 18.936C22.5364 18.866 22.5514 18.631 22.8864 17.901C23.0164 17.616 23.3159 17.136 23.8364 16.676C23.8954 16.8501 23.9274 17.0322 23.9314 17.216C23.9264 18.341 23.1214 18.761 22.6369 18.936H22.6364Z" fill="#E7E3ED"/>
</svg>
