<svg width="42" height="42" viewBox="0 0 42 42" fill="none" xmlns="http://www.w3.org/2000/svg">
<path d="M14.048 33.5175C14.048 33.6862 13.8532 33.8211 13.6077 33.8211C13.3282 33.8464 13.1335 33.7115 13.1335 33.5175C13.1335 33.3488 13.3282 33.2139 13.5738 33.2139C13.8278 33.1886 14.048 33.3235 14.048 33.5175ZM11.4145 33.138C11.3552 33.3066 11.5246 33.5006 11.7786 33.5512C11.9988 33.6356 12.2528 33.5512 12.3036 33.3826C12.3544 33.2139 12.1935 33.0199 11.9395 32.944C11.7194 32.8849 11.4738 32.9693 11.4145 33.138ZM15.1573 32.9946C14.9117 33.0536 14.7423 33.2139 14.7677 33.4079C14.7931 33.5765 15.0133 33.6862 15.2673 33.6271C15.5129 33.5681 15.6823 33.4079 15.6569 33.2392C15.6315 33.0789 15.4028 32.9693 15.1573 32.9946ZM20.729 0.674736C8.98427 0.674736 0 9.55595 0 21.2542C0 30.6077 5.91048 38.6118 14.3528 41.4288C15.4367 41.6228 15.8177 40.9565 15.8177 40.4082C15.8177 39.8853 15.7923 37.0008 15.7923 35.2296C15.7923 35.2296 9.86492 36.4948 8.62016 32.7163C8.62016 32.7163 7.65484 30.2619 6.26613 29.6293C6.26613 29.6293 4.32702 28.3052 6.40161 28.3305C6.40161 28.3305 8.51008 28.4992 9.67016 30.5065C11.5246 33.7621 14.6323 32.8259 15.8431 32.2692C16.0379 30.9198 16.5883 29.9836 17.198 29.4269C12.4645 28.904 7.68871 28.2208 7.68871 20.1071C7.68871 17.7877 8.33226 16.6238 9.6871 15.1394C9.46694 14.5912 8.74718 12.3308 9.90726 9.41257C11.677 8.86434 15.75 11.6898 15.75 11.6898C17.4435 11.2175 19.2641 10.9729 21.0677 10.9729C22.8714 10.9729 24.6919 11.2175 26.3855 11.6898C26.3855 11.6898 30.4585 8.85591 32.2282 9.41257C33.3883 12.3392 32.6685 14.5912 32.4484 15.1394C33.8032 16.6322 34.6331 17.7962 34.6331 20.1071C34.6331 28.2461 29.6456 28.8956 24.9121 29.4269C25.6911 30.0932 26.3516 31.3583 26.3516 33.3404C26.3516 36.1827 26.3262 39.6998 26.3262 40.3914C26.3262 40.9396 26.7157 41.6059 27.7911 41.4119C36.2589 38.6118 42 30.6077 42 21.2542C42 9.55595 32.4738 0.674736 20.729 0.674736ZM8.23065 29.7643C8.12056 29.8486 8.14597 30.0426 8.28992 30.2029C8.4254 30.3378 8.62016 30.3969 8.73024 30.2872C8.84032 30.2029 8.81492 30.0089 8.67097 29.8486C8.53548 29.7137 8.34073 29.6546 8.23065 29.7643ZM7.31613 29.0811C7.25686 29.1908 7.34153 29.3257 7.51089 29.41C7.64637 29.4944 7.81573 29.4691 7.875 29.351C7.93427 29.2414 7.8496 29.1064 7.68024 29.0221C7.51089 28.9715 7.3754 28.9968 7.31613 29.0811ZM10.0597 32.0837C9.92419 32.1933 9.975 32.4464 10.1698 32.6066C10.3645 32.8006 10.6101 32.8259 10.7202 32.691C10.8302 32.5813 10.7794 32.3283 10.6101 32.168C10.4238 31.974 10.1698 31.9487 10.0597 32.0837ZM9.09435 30.8439C8.95887 30.9282 8.95887 31.1475 9.09435 31.3415C9.22984 31.5355 9.45847 31.6198 9.56855 31.5355C9.70403 31.4258 9.70403 31.2065 9.56855 31.0125C9.45 30.8186 9.22984 30.7342 9.09435 30.8439Z" fill="#E7E3ED"/>
</svg>
