<svg width="42" height="43" viewBox="0 0 42 43" fill="none" xmlns="http://www.w3.org/2000/svg">
<path d="M37.5 0.693359H4.5C2.01562 0.693359 0 2.70589 0 5.18646V38.1358C0 40.6164 2.01562 42.6289 4.5 42.6289H37.5C39.9844 42.6289 42 40.6164 42 38.1358V5.18646C42 2.70589 39.9844 0.693359 37.5 0.693359ZM32.9156 15.558C32.9344 15.8201 32.9344 16.0916 32.9344 16.3537C32.9344 24.4693 26.7469 33.8206 15.4406 33.8206C11.9531 33.8206 8.71875 32.8096 6 31.0686C6.49688 31.1247 6.975 31.1435 7.48125 31.1435C10.3594 31.1435 13.0031 30.1699 15.1125 28.5225C12.4125 28.4663 10.1438 26.6972 9.36563 24.2634C10.3125 24.4038 11.1656 24.4038 12.1406 24.1511C9.32812 23.5801 7.21875 21.1089 7.21875 18.1228V18.0479C8.03437 18.5066 8.99062 18.7874 9.99375 18.8249C9.1504 18.2648 8.45905 17.5049 7.98138 16.6131C7.50371 15.7213 7.25459 14.7253 7.25625 13.714C7.25625 12.572 7.55625 11.5236 8.09063 10.6156C11.1188 14.3411 15.6656 16.7749 20.7656 17.037C19.8937 12.8715 23.0156 9.49234 26.7656 9.49234C28.5375 9.49234 30.1312 10.2318 31.2562 11.43C32.6437 11.1679 33.975 10.6531 35.1562 9.95101C34.6969 11.3738 33.7313 12.572 32.4563 13.3302C33.6938 13.1991 34.8937 12.8528 36 12.3754C35.1656 13.6017 34.1156 14.6875 32.9156 15.558Z" fill="#E7E3ED"/>
</svg>
