<svg width="42" height="43" viewBox="0 0 42 43" fill="none" xmlns="http://www.w3.org/2000/svg">
<path d="M39 0.188538H2.99062C1.34062 0.188538 0 1.55038 0 3.22215V39.231C0 40.9028 1.34062 42.2646 2.99062 42.2646H39C40.65 42.2646 42 40.9028 42 39.231V3.22215C42 1.55038 40.65 0.188538 39 0.188538ZM12.6937 36.2537H6.46875V16.1737H12.7031V36.2537H12.6937ZM9.58125 13.4312C7.58437 13.4312 5.97188 11.8064 5.97188 9.81532C5.97188 7.82422 7.58437 6.19941 9.58125 6.19941C11.5687 6.19941 13.1906 7.82422 13.1906 9.81532C13.1906 11.8158 11.5781 13.4312 9.58125 13.4312V13.4312ZM36.0281 36.2537H29.8031V26.4861C29.8031 24.1569 29.7562 21.1608 26.5687 21.1608C23.325 21.1608 22.8281 23.6967 22.8281 26.317V36.2537H16.6031V16.1737H22.575V18.9161H22.6594C23.4937 17.3383 25.5281 15.6759 28.5563 15.6759C34.8563 15.6759 36.0281 19.8366 36.0281 25.2463V36.2537V36.2537Z" fill="#E7E3ED"/>
</svg>
