<svg width="32" height="32" viewBox="0 0 32 32" fill="none" xmlns="http://www.w3.org/2000/svg">
<path d="M16 1.26102e-05C7.16267 1.26102e-05 0 7.16401 0 16C0 24.8373 7.16267 32 16 32C24.836 32 32 24.8373 32 16C32.0006 14.492 31.7883 12.9914 31.3693 11.5427C31.2908 11.3519 31.1416 11.1989 30.9529 11.1155C30.7642 11.0321 30.5506 11.0249 30.3567 11.0952C30.1627 11.1656 30.0035 11.3082 29.9122 11.4932C29.8209 11.6782 29.8046 11.8913 29.8667 12.088H29.864C30.2173 13.3453 30.4 14.6587 30.4 16C30.4052 17.8918 30.0351 19.7659 29.3112 21.5138C28.5873 23.2616 27.524 24.8485 26.1827 26.1827C24.8486 27.524 23.2616 28.5874 21.5138 29.3114C19.7659 30.0353 17.8918 30.4053 16 30.4C14.1082 30.4052 12.2341 30.0352 10.4863 29.3112C8.7384 28.5873 7.15148 27.524 5.81733 26.1827C4.47592 24.8486 3.41247 23.2617 2.68856 21.5138C1.96464 19.766 1.59465 17.8919 1.6 16C1.5948 14.1082 1.96486 12.2341 2.68876 10.4863C3.41267 8.73842 4.47604 7.15149 5.81733 5.81735C7.15139 4.47593 8.7383 3.41248 10.4862 2.68857C12.234 1.96466 14.1082 1.59466 16 1.60001C19.4347 1.60001 22.684 2.79468 25.2773 4.98668C25.1134 5.40269 25.0971 5.86233 25.2311 6.28892C25.3651 6.71551 25.6413 7.08327 26.0136 7.33086C26.3859 7.57845 26.8319 7.69089 27.2771 7.64945C27.7223 7.608 28.1399 7.41517 28.4601 7.1031C28.7803 6.79104 28.9839 6.37862 29.0369 5.93463C29.0898 5.49063 28.9889 5.04191 28.751 4.6633C28.5131 4.28469 28.1527 3.99908 27.7297 3.85411C27.3067 3.70915 26.8468 3.71358 26.4267 3.86668C23.5281 1.3677 19.8271 -0.00479936 16 1.26102e-05V1.26102e-05ZM14.08 7.84001L8.48 22.376H11.9867L12.9027 19.912H18.1947L17.236 17.1893H13.752L16.0187 10.9347L20.0507 22.3747H23.5587L17.96 7.84001H14.08Z" fill="#E5E5E5"/>
</svg>
