<svg width="32" height="32" viewBox="0 0 32 32" fill="none" xmlns="http://www.w3.org/2000/svg">
<path d="M28.4445 4.44446H3.55561C3.08411 4.44446 2.63193 4.63176 2.29853 4.96516C1.96513 5.29855 1.77783 5.75074 1.77783 6.22224V25.7778C1.77783 26.2493 1.96513 26.7015 2.29853 27.0349C2.63193 27.3683 3.08411 27.5556 3.55561 27.5556H28.4445C28.916 27.5556 29.3682 27.3683 29.7016 27.0349C30.035 26.7015 30.2223 26.2493 30.2223 25.7778V6.22224C30.2223 5.75074 30.035 5.29855 29.7016 4.96516C29.3682 4.63176 28.916 4.44446 28.4445 4.44446V4.44446ZM3.55561 6.22224H28.4445V8.17779H3.55561V6.22224ZM3.55561 25.7778V9.60001H28.4445V25.7778H3.55561Z" fill="#EDE3E9"/>
<path d="M15.1111 20.4445H20.4444V22.2222H15.1111V20.4445Z" fill="#EDE3E9"/>
<path d="M6.22217 13.9377L12.2577 16.7111L6.22217 19.4755V21.4311L14.7555 17.5111V15.9022L6.22217 11.9822V13.9377Z" fill="#EDE3E9"/>
</svg>
