<svg width="24" height="32" viewBox="0 0 24 32" fill="none" xmlns="http://www.w3.org/2000/svg">
<path d="M17.136 11.9747H11.0186V0H17.136C20.4373 0 23.1226 2.68533 23.1226 5.98667C23.1226 9.288 20.4373 11.9747 17.136 11.9747V11.9747ZM12.98 10.0133H17.136C19.356 10.0133 21.1613 8.20667 21.1613 5.988C21.1613 3.76933 19.3546 1.96267 17.136 1.96267H12.98V10.0133V10.0133ZM12.98 11.9747H6.86398C3.56264 11.9747 0.87731 9.28933 0.87731 5.988C0.87731 2.68667 3.56264 0 6.86398 0H12.9813V11.9747H12.98ZM6.86398 1.96133C4.64398 1.96133 2.83864 3.768 2.83864 5.98667C2.83864 8.20533 4.64398 10.0133 6.86398 10.0133H11.02V1.96133H6.86398ZM12.98 21.9867H6.86398C3.56264 21.9867 0.87731 19.3013 0.87731 16C0.87731 12.6987 3.56264 10.0133 6.86398 10.0133H12.9813V21.9867H12.98ZM6.86398 11.9747C4.64398 11.9747 2.83864 13.7813 2.83864 16C2.83864 18.2187 4.64531 20.0253 6.86398 20.0253H11.02V11.9747H6.86398ZM6.89598 32C3.57731 32 0.875977 29.3147 0.875977 26.0133C0.875977 22.712 3.56131 20.0267 6.86264 20.0267H12.98V25.948C12.98 29.2853 10.2506 32 6.89598 32V32ZM6.86398 21.9867C5.79682 21.9881 4.77379 22.4126 4.01919 23.1672C3.2646 23.9218 2.84005 24.9448 2.83864 26.012C2.83864 28.232 4.65864 30.0373 6.89731 30.0373C9.17064 30.0373 11.0213 28.2027 11.0213 25.9467V21.9867H6.86398V21.9867ZM17.136 21.9867H17.0053C13.704 21.9867 11.0186 19.3013 11.0186 16C11.0186 12.6987 13.704 10.0133 17.0053 10.0133H17.136C20.4373 10.0133 23.1226 12.6987 23.1226 16C23.1226 19.3013 20.4373 21.9867 17.136 21.9867V21.9867ZM17.0066 11.9747C14.7866 11.9747 12.9813 13.7813 12.9813 16C12.9813 18.2187 14.788 20.0253 17.0066 20.0253H17.1373C19.3573 20.0253 21.1626 18.2187 21.1626 16C21.1626 13.7813 19.356 11.9747 17.1373 11.9747H17.0066V11.9747Z" fill="#E7E3ED"/>
</svg>
