<svg width="32" height="24" viewBox="0 0 32 24" fill="none" xmlns="http://www.w3.org/2000/svg">
<path d="M6.42699 19.031C5.51599 19.031 4.68799 18.287 4.68799 17.38C4.68799 16.473 5.43199 15.724 6.42699 15.724C7.42699 15.724 8.17799 16.469 8.17799 17.38C8.17799 18.287 7.34499 19.031 6.43299 19.031H6.42699ZM27.776 10.016C27.593 8.693 26.776 7.615 25.697 6.792L25.276 6.45899L24.937 6.87C24.281 7.615 24.016 8.93799 24.098 9.927C24.177 10.678 24.415 11.422 24.838 12C24.494 12.177 24.078 12.333 23.754 12.505C22.994 12.754 22.254 12.838 21.515 12.838H0.129994L0.0459939 13.327C-0.115759 14.9401 0.142973 16.5676 0.796994 18.051L1.12499 18.63V18.707C3.12499 22.02 6.68199 23.51 10.562 23.51C18.021 23.51 24.135 20.286 27.035 13.333C28.936 13.416 30.854 12.921 31.754 11.098L31.994 10.687L31.598 10.436C30.515 9.77499 29.035 9.687 27.797 10.02L27.77 10.025L27.776 10.016ZM17.099 8.693H13.86V11.921H17.099V8.693ZM17.099 4.63599H13.86V7.864H17.099V4.63599ZM17.099 0.494995H13.86V3.724H17.099V0.494995ZM21.057 8.693H17.838V11.921H21.067V8.693H21.057ZM9.06299 8.693H5.84399V11.921H9.07299V8.693H9.06299ZM13.099 8.693H9.90199V11.921H13.121V8.693H13.099ZM5.06299 8.693H1.86399V11.921H5.10399V8.693H5.06299ZM13.099 4.63599H9.90199V7.864H13.121V4.64L13.099 4.63599ZM9.04099 4.63599H5.84899V7.864H9.06799V4.64L9.04699 4.63599H9.04099Z" fill="#E7E3ED"/>
</svg>
