<svg width="29" height="33" viewBox="0 0 29 33" fill="none" xmlns="http://www.w3.org/2000/svg">
<path d="M0 0.571426L2.568 29.3714L14.092 32.5714L25.646 29.3674L28.218 0.571426H0.00200009H0ZM23.444 27.5354L14.156 30.1094V30.1234L14.132 30.1154L14.108 30.1234V30.1094L4.82 27.5354L2.624 2.92743H25.64L23.444 27.5354ZM18.444 17.1394L18.036 21.7194L14.092 22.7834L10.158 21.7234L9.906 18.9034H6.36L6.854 24.4514L14.106 26.4574L21.336 24.4514L22.306 13.6074H9.432L9.11 9.98943H22.626L22.942 6.45743H5.248L6.202 17.1394H18.444Z" fill="#E7E3ED"/>
</svg>
