<svg width="32" height="17" viewBox="0 0 32 17" fill="none" xmlns="http://www.w3.org/2000/svg">
<path d="M9.349 6.1814H8.088L7.401 9.7124H8.521C9.26 9.7124 9.812 9.5724 10.177 9.2914C10.536 9.0154 10.781 8.5464 10.906 7.8954C11.03 7.2704 10.973 6.8274 10.745 6.5674C10.51 6.3124 10.046 6.1814 9.349 6.1814ZM16 0.156403C7.161 0.156403 0 3.9274 0 8.5724C0 13.2174 7.161 16.9884 16 16.9884C24.839 16.9884 32 13.2174 32 8.5724C32 3.9274 24.839 0.156403 16 0.156403ZM11.651 10.0934C11.3048 10.4261 10.8882 10.6766 10.432 10.8264C9.984 10.9674 9.412 11.0454 8.719 11.0454H7.14L6.708 13.2854H4.869L6.51 4.8534H10.041C11.104 4.8534 11.88 5.1294 12.369 5.6864C12.854 6.2434 13.005 7.0254 12.806 8.0254C12.7315 8.42141 12.5948 8.80314 12.401 9.1564C12.2015 9.50631 11.9481 9.82253 11.65 10.0934H11.651ZM17.021 11.0454L17.745 7.3124C17.828 6.8894 17.797 6.5994 17.65 6.4414C17.51 6.2904 17.202 6.2124 16.734 6.2124H15.281L14.344 11.0454H12.516L14.156 2.6084H15.979L15.542 4.8534H17.167C18.194 4.8534 18.896 5.0304 19.282 5.3844C19.673 5.7444 19.787 6.3214 19.637 7.1194L18.87 11.0464L17.021 11.0454ZM27.145 8.0254C27.0728 8.42203 26.936 8.80411 26.74 9.1564C26.5424 9.50592 26.291 9.82213 25.995 10.0934C25.6457 10.4245 25.2278 10.6748 24.771 10.8264C24.323 10.9674 23.75 11.0454 23.058 11.0454H21.485L21.048 13.2854H19.209L20.85 4.8534H24.381C25.444 4.8534 26.22 5.1294 26.709 5.6924C27.194 6.2444 27.344 7.0254 27.145 8.0254ZM23.688 6.1814H22.432L21.745 9.7124H22.86C23.604 9.7124 24.156 9.5724 24.516 9.2914C24.88 9.0154 25.125 8.5464 25.251 7.8954C25.375 7.2704 25.318 6.8274 25.083 6.5674C24.855 6.3124 24.386 6.1814 23.688 6.1814Z" fill="#E7E3ED"/>
</svg>
